<?xml version="1.0" encoding="UTF-8" standalone="no"?>
<!DOCTYPE svg PUBLIC "-//W3C//DTD SVG 1.1//EN"
 "http://www.w3.org/Graphics/SVG/1.1/DTD/svg11.dtd">
<!-- Generated by graphviz version 2.47.3 (20210619.1520)
 -->
<!-- Title: dependencies Pages: 1 -->
<svg width="362pt" height="174pt"
 viewBox="0.00 0.00 362.00 173.80" xmlns="http://www.w3.org/2000/svg" xmlns:xlink="http://www.w3.org/1999/xlink">
<g id="graph0" class="graph" transform="scale(1 1) rotate(0) translate(4 169.8)">
<title>dependencies</title>
<polygon fill="white" stroke="transparent" points="-4,4 -4,-169.8 358,-169.8 358,4 -4,4"/>
<text text-anchor="middle" x="177" y="-8.2" font-family="sans-serif" font-size="14.00">dependencies</text>
<g id="clust1" class="cluster">
<title>cluster_HumidityPageModule</title>
<polygon fill="none" stroke="black" stroke-dasharray="1,5" points="8,-32.8 8,-157.8 346,-157.8 346,-32.8 8,-32.8"/>
</g>
<g id="clust4" class="cluster">
<title>cluster_HumidityPageModule_imports</title>
<polygon fill="none" stroke="black" points="136,-40.8 136,-92.8 338,-92.8 338,-40.8 136,-40.8"/>
</g>
<g id="clust2" class="cluster">
<title>cluster_HumidityPageModule_declarations</title>
<polygon fill="none" stroke="black" points="16,-40.8 16,-92.8 128,-92.8 128,-40.8 16,-40.8"/>
</g>
<!-- HumidityPage -->
<g id="node1" class="node">
<title>HumidityPage</title>
<polygon fill="#ffffb3" stroke="black" points="120.38,-84.8 23.62,-84.8 23.62,-48.8 120.38,-48.8 120.38,-84.8"/>
<text text-anchor="middle" x="72" y="-62.6" font-family="Times,serif" font-size="14.00">HumidityPage</text>
</g>
<!-- HumidityPageModule -->
<g id="node2" class="node">
<title>HumidityPageModule</title>
<polygon fill="#8dd3c7" stroke="black" points="231.43,-149.8 228.43,-153.8 207.43,-153.8 204.43,-149.8 90.57,-149.8 90.57,-113.8 231.43,-113.8 231.43,-149.8"/>
<text text-anchor="middle" x="161" y="-127.6" font-family="Times,serif" font-size="14.00">HumidityPageModule</text>
</g>
<!-- HumidityPage&#45;&gt;HumidityPageModule -->
<g id="edge1" class="edge">
<title>HumidityPage&#45;&gt;HumidityPageModule</title>
<path fill="none" stroke="black" d="M105.61,-84.91C105.61,-84.91 105.61,-103.79 105.61,-103.79"/>
<polygon fill="black" stroke="black" points="102.11,-103.79 105.61,-113.79 109.11,-103.79 102.11,-103.79"/>
</g>
<!-- HumidityPageRoutingModule -->
<g id="node3" class="node">
<title>HumidityPageRoutingModule</title>
<polygon fill="#8dd3c7" stroke="black" points="329.55,-84.8 326.55,-88.8 305.55,-88.8 302.55,-84.8 144.45,-84.8 144.45,-48.8 329.55,-48.8 329.55,-84.8"/>
<text text-anchor="middle" x="237" y="-62.6" font-family="Times,serif" font-size="14.00">HumidityPageRoutingModule</text>
</g>
<!-- HumidityPageRoutingModule&#45;&gt;HumidityPageModule -->
<g id="edge2" class="edge">
<title>HumidityPageRoutingModule&#45;&gt;HumidityPageModule</title>
<path fill="none" stroke="black" d="M187.72,-84.91C187.72,-84.91 187.72,-103.79 187.72,-103.79"/>
<polygon fill="black" stroke="black" points="184.22,-103.79 187.72,-113.79 191.22,-103.79 184.22,-103.79"/>
</g>
</g>
</svg>
