<?xml version="1.0" encoding="UTF-8" standalone="no"?>
<!DOCTYPE svg PUBLIC "-//W3C//DTD SVG 1.1//EN"
 "http://www.w3.org/Graphics/SVG/1.1/DTD/svg11.dtd">
<!-- Generated by graphviz version 2.47.3 (20210619.1520)
 -->
<!-- Title: dependencies Pages: 1 -->
<svg width="338pt" height="174pt"
 viewBox="0.00 0.00 338.00 173.80" xmlns="http://www.w3.org/2000/svg" xmlns:xlink="http://www.w3.org/1999/xlink">
<g id="graph0" class="graph" transform="scale(1 1) rotate(0) translate(4 169.8)">
<title>dependencies</title>
<polygon fill="white" stroke="transparent" points="-4,4 -4,-169.8 334,-169.8 334,4 -4,4"/>
<text text-anchor="middle" x="165" y="-8.2" font-family="sans-serif" font-size="14.00">dependencies</text>
<g id="clust1" class="cluster">
<title>cluster_GenderPageModule</title>
<polygon fill="none" stroke="black" stroke-dasharray="1,5" points="8,-32.8 8,-157.8 322,-157.8 322,-32.8 8,-32.8"/>
</g>
<g id="clust2" class="cluster">
<title>cluster_GenderPageModule_declarations</title>
<polygon fill="none" stroke="black" points="214,-40.8 214,-92.8 314,-92.8 314,-40.8 214,-40.8"/>
</g>
<g id="clust4" class="cluster">
<title>cluster_GenderPageModule_imports</title>
<polygon fill="none" stroke="black" points="16,-40.8 16,-92.8 206,-92.8 206,-40.8 16,-40.8"/>
</g>
<!-- GenderPage -->
<g id="node1" class="node">
<title>GenderPage</title>
<polygon fill="#ffffb3" stroke="black" points="306.41,-84.8 221.59,-84.8 221.59,-48.8 306.41,-48.8 306.41,-84.8"/>
<text text-anchor="middle" x="264" y="-62.6" font-family="Times,serif" font-size="14.00">GenderPage</text>
</g>
<!-- GenderPageModule -->
<g id="node2" class="node">
<title>GenderPageModule</title>
<polygon fill="#8dd3c7" stroke="black" points="243.96,-149.8 240.96,-153.8 219.96,-153.8 216.96,-149.8 116.04,-149.8 116.04,-113.8 243.96,-113.8 243.96,-149.8"/>
<text text-anchor="middle" x="180" y="-127.6" font-family="Times,serif" font-size="14.00">GenderPageModule</text>
</g>
<!-- GenderPage&#45;&gt;GenderPageModule -->
<g id="edge1" class="edge">
<title>GenderPage&#45;&gt;GenderPageModule</title>
<path fill="none" stroke="black" d="M232.89,-84.91C232.89,-84.91 232.89,-103.79 232.89,-103.79"/>
<polygon fill="black" stroke="black" points="229.39,-103.79 232.89,-113.79 236.39,-103.79 229.39,-103.79"/>
</g>
<!-- GenderPageRoutingModule -->
<g id="node3" class="node">
<title>GenderPageRoutingModule</title>
<polygon fill="#8dd3c7" stroke="black" points="197.58,-84.8 194.58,-88.8 173.58,-88.8 170.58,-84.8 24.42,-84.8 24.42,-48.8 197.58,-48.8 197.58,-84.8"/>
<text text-anchor="middle" x="111" y="-62.6" font-family="Times,serif" font-size="14.00">GenderPageRoutingModule</text>
</g>
<!-- GenderPageRoutingModule&#45;&gt;GenderPageModule -->
<g id="edge2" class="edge">
<title>GenderPageRoutingModule&#45;&gt;GenderPageModule</title>
<path fill="none" stroke="black" d="M156.78,-84.91C156.78,-84.91 156.78,-103.79 156.78,-103.79"/>
<polygon fill="black" stroke="black" points="153.28,-103.79 156.78,-113.79 160.28,-103.79 153.28,-103.79"/>
</g>
</g>
</svg>
