<svg width="31" height="30" viewBox="0 0 31 30" fill="none" xmlns="http://www.w3.org/2000/svg">
<path d="M13.625 8.4375C14.3525 8.44394 15.0713 8.27859 15.723 7.95491C16.3746 7.63122 16.9406 7.15833 17.375 6.57469C17.8139 7.1535 18.3809 7.62286 19.0315 7.946C19.682 8.26914 20.3986 8.4373 21.125 8.4373C21.8514 8.4373 22.568 8.26914 23.2186 7.946C23.8691 7.62286 24.4361 7.1535 24.875 6.57469C25.3094 7.15833 25.8754 7.63122 26.5271 7.95491C27.1787 8.27859 27.8975 8.44394 28.625 8.4375V6.5625C27.9866 6.52515 27.3738 6.29876 26.8645 5.91212C26.3551 5.52549 25.9723 4.99608 25.7647 4.39125C25.7016 4.20503 25.582 4.04315 25.4225 3.92819C25.263 3.81323 25.0716 3.75094 24.875 3.75C24.6787 3.74859 24.487 3.80945 24.3275 3.92382C24.168 4.0382 24.0488 4.20021 23.9872 4.38656C23.78 4.99242 23.3972 5.52288 22.8875 5.91039C22.3777 6.2979 21.7642 6.52491 21.125 6.5625C20.4866 6.52515 19.8738 6.29876 19.3645 5.91212C18.8551 5.52549 18.4723 4.99608 18.2647 4.39125C18.2016 4.20503 18.082 4.04315 17.9225 3.92819C17.763 3.81323 17.5716 3.75094 17.375 3.75C17.1781 3.74577 16.9851 3.80552 16.825 3.9203C16.6649 4.03508 16.5464 4.19869 16.4872 4.38656C16.28 4.99242 15.8972 5.52288 15.3875 5.91039C14.8777 6.2979 14.2642 6.52491 13.625 6.5625H12.6875V5.625C12.6875 4.63044 12.2924 3.67661 11.5892 2.97335C10.8859 2.27009 9.93206 1.875 8.9375 1.875C7.94294 1.875 6.98911 2.27009 6.28585 2.97335C5.58259 3.67661 5.1875 4.63044 5.1875 5.625V16.1831C4.07276 16.9536 3.22331 18.0497 2.75538 19.3214C2.28745 20.5931 2.2239 21.9784 2.57343 23.2876C2.92296 24.5968 3.66849 25.7661 4.70801 26.6353C5.74754 27.5046 7.03026 28.0315 8.38068 28.1438C9.7311 28.2561 11.0832 27.9484 12.2521 27.2628C13.4209 26.5772 14.3494 25.5472 14.9104 24.3137C15.4714 23.0802 15.6376 21.7035 15.3862 20.3719C15.1348 19.0404 14.4781 17.819 13.5059 16.875H13.625C14.3525 16.8814 15.0713 16.7161 15.723 16.3924C16.3746 16.0687 16.9406 15.5958 17.375 15.0122C17.8139 15.591 18.3809 16.0604 19.0315 16.3835C19.682 16.7066 20.3986 16.8748 21.125 16.8748C21.8514 16.8748 22.568 16.7066 23.2186 16.3835C23.8691 16.0604 24.4361 15.591 24.875 15.0122C25.3094 15.5958 25.8754 16.0687 26.5271 16.3924C27.1787 16.7161 27.8975 16.8814 28.625 16.875V15C27.9866 14.9627 27.3738 14.7363 26.8645 14.3496C26.3551 13.963 25.9723 13.4336 25.7647 12.8287C25.7016 12.6425 25.582 12.4806 25.4225 12.3657C25.263 12.2507 25.0716 12.1884 24.875 12.1875C24.6787 12.1861 24.487 12.2469 24.3275 12.3613C24.168 12.4757 24.0488 12.6377 23.9872 12.8241C23.78 13.4299 23.3972 13.9604 22.8875 14.3479C22.3777 14.7354 21.7642 14.9624 21.125 15C20.4866 14.9627 19.8738 14.7363 19.3645 14.3496C18.8551 13.963 18.4723 13.4336 18.2647 12.8287C18.2016 12.6425 18.082 12.4806 17.9225 12.3657C17.763 12.2507 17.5716 12.1884 17.375 12.1875C17.1781 12.1833 16.9851 12.243 16.825 12.3578C16.6649 12.4726 16.5464 12.6362 16.4872 12.8241C16.28 13.4299 15.8972 13.9604 15.3875 14.3479C14.8777 14.7354 14.2642 14.9624 13.625 15H12.6875V8.4375H13.625ZM7.0625 5.625C7.0625 5.12772 7.26005 4.65081 7.61168 4.29917C7.96331 3.94754 8.44022 3.75 8.9375 3.75C9.43478 3.75 9.9117 3.94754 10.2633 4.29917C10.615 4.65081 10.8125 5.12772 10.8125 5.625V11.25H7.0625V5.625ZM8.9375 26.25C7.90606 26.2503 6.90336 25.9101 6.08497 25.2824C5.26658 24.6546 4.67825 23.7743 4.41125 22.778C4.14426 21.7817 4.21353 20.7251 4.60832 19.7722C5.0031 18.8193 5.70134 18.0234 6.59469 17.5078L7.0625 17.2359V13.125H10.8125V17.2369L11.2803 17.5078C12.1737 18.0234 12.8719 18.8193 13.2667 19.7722C13.6615 20.7251 13.7307 21.7817 13.4638 22.778C13.1968 23.7743 12.6084 24.6546 11.79 25.2824C10.9716 25.9101 9.96894 26.2503 8.9375 26.25Z" fill="black"/>
</svg>
