<svg width="22" height="24" viewBox="0 0 22 24" fill="none" xmlns="http://www.w3.org/2000/svg">
<path d="M20.0548 7.814C16.5118 1.404 6.11775 0 6.11775 0C6.11775 0 10.9158 5.34 4.78375 9.567C0.907754 12.233 -0.626245 15.697 1.03375 19.481C2.30375 22.381 4.99375 23.557 7.89375 24C7.14875 22.566 6.96175 20.495 7.51275 18.372C7.56647 18.1577 7.62852 17.9455 7.69875 17.736C8.51175 18.994 9.84676 19.682 11.1488 19.365C12.9318 18.941 13.9778 16.783 13.4908 14.566C13.3794 14.0852 13.1988 13.623 12.9548 13.194C13.0248 13.211 13.0948 13.218 13.1668 13.241C15.3918 13.876 16.4678 17.203 15.5698 20.675C15.304 21.727 14.8555 22.7242 14.2448 23.621C18.0648 22.391 20.6048 19.31 21.3048 16.565C22.0408 13.709 21.4818 10.38 20.0548 7.814V7.814Z" fill="black"/>
</svg>
