<svg width="30" height="30" viewBox="0 0 30 30" fill="none" xmlns="http://www.w3.org/2000/svg">
<path d="M14.823 13.6395C14.0565 19.812 10.1415 20.91 10.1415 25.2015C10.1415 27.8505 12.366 30 15 30C17.634 30 19.857 27.849 19.857 25.2015C19.857 20.91 15.942 19.812 15.1755 13.6395C15.1515 13.455 14.847 13.455 14.823 13.6395V13.6395ZM5.82451 0.139504C5.05801 6.312 1.14301 7.4085 1.14301 11.7015C1.14301 14.349 3.36601 16.5 6.00001 16.5C8.63401 16.5 10.857 14.349 10.857 11.7015C10.857 7.41 6.94201 6.312 6.17551 0.139504C6.15301 -0.0449958 5.84701 -0.0449958 5.82451 0.139504V0.139504ZM23.8245 0.139504C23.058 6.312 19.143 7.41 19.143 11.7015C19.143 14.349 21.366 16.5 24 16.5C26.634 16.5 28.857 14.349 28.857 11.7015C28.857 7.41 24.942 6.312 24.1755 0.139504C24.1515 -0.0449958 23.847 -0.0449958 23.8245 0.139504V0.139504Z" fill="black"/>
</svg>
