<?xml version="1.0" encoding="UTF-8" standalone="no"?>
<!DOCTYPE svg PUBLIC "-//W3C//DTD SVG 1.1//EN"
 "http://www.w3.org/Graphics/SVG/1.1/DTD/svg11.dtd">
<!-- Generated by graphviz version 2.47.3 (20210619.1520)
 -->
<!-- Title: dependencies Pages: 1 -->
<svg width="398pt" height="174pt"
 viewBox="0.00 0.00 398.00 173.80" xmlns="http://www.w3.org/2000/svg" xmlns:xlink="http://www.w3.org/1999/xlink">
<g id="graph0" class="graph" transform="scale(1 1) rotate(0) translate(4 169.8)">
<title>dependencies</title>
<polygon fill="white" stroke="transparent" points="-4,4 -4,-169.8 394,-169.8 394,4 -4,4"/>
<text text-anchor="middle" x="195" y="-8.2" font-family="sans-serif" font-size="14.00">dependencies</text>
<g id="clust1" class="cluster">
<title>cluster_TemperaturePageModule</title>
<polygon fill="none" stroke="black" stroke-dasharray="1,5" points="8,-32.8 8,-157.8 382,-157.8 382,-32.8 8,-32.8"/>
</g>
<g id="clust2" class="cluster">
<title>cluster_TemperaturePageModule_declarations</title>
<polygon fill="none" stroke="black" points="244,-40.8 244,-92.8 374,-92.8 374,-40.8 244,-40.8"/>
</g>
<g id="clust4" class="cluster">
<title>cluster_TemperaturePageModule_imports</title>
<polygon fill="none" stroke="black" points="16,-40.8 16,-92.8 236,-92.8 236,-40.8 16,-40.8"/>
</g>
<!-- TemperaturePage -->
<g id="node1" class="node">
<title>TemperaturePage</title>
<polygon fill="#ffffb3" stroke="black" points="366.23,-84.8 251.77,-84.8 251.77,-48.8 366.23,-48.8 366.23,-84.8"/>
<text text-anchor="middle" x="309" y="-62.6" font-family="Times,serif" font-size="14.00">TemperaturePage</text>
</g>
<!-- TemperaturePageModule -->
<g id="node2" class="node">
<title>TemperaturePageModule</title>
<polygon fill="#8dd3c7" stroke="black" points="289.28,-149.8 286.28,-153.8 265.28,-153.8 262.28,-149.8 130.72,-149.8 130.72,-113.8 289.28,-113.8 289.28,-149.8"/>
<text text-anchor="middle" x="210" y="-127.6" font-family="Times,serif" font-size="14.00">TemperaturePageModule</text>
</g>
<!-- TemperaturePage&#45;&gt;TemperaturePageModule -->
<g id="edge1" class="edge">
<title>TemperaturePage&#45;&gt;TemperaturePageModule</title>
<path fill="none" stroke="black" d="M270.39,-84.91C270.39,-84.91 270.39,-103.79 270.39,-103.79"/>
<polygon fill="black" stroke="black" points="266.89,-103.79 270.39,-113.79 273.89,-103.79 266.89,-103.79"/>
</g>
<!-- TemperaturePageRoutingModule -->
<g id="node3" class="node">
<title>TemperaturePageRoutingModule</title>
<polygon fill="#8dd3c7" stroke="black" points="227.89,-84.8 224.89,-88.8 203.89,-88.8 200.89,-84.8 24.11,-84.8 24.11,-48.8 227.89,-48.8 227.89,-84.8"/>
<text text-anchor="middle" x="126" y="-62.6" font-family="Times,serif" font-size="14.00">TemperaturePageRoutingModule</text>
</g>
<!-- TemperaturePageRoutingModule&#45;&gt;TemperaturePageModule -->
<g id="edge2" class="edge">
<title>TemperaturePageRoutingModule&#45;&gt;TemperaturePageModule</title>
<path fill="none" stroke="black" d="M179.28,-84.91C179.28,-84.91 179.28,-103.79 179.28,-103.79"/>
<polygon fill="black" stroke="black" points="175.78,-103.79 179.28,-113.79 182.78,-103.79 175.78,-103.79"/>
</g>
</g>
</svg>
