<svg width="31" height="31" viewBox="0 0 31 31" fill="none" xmlns="http://www.w3.org/2000/svg">
<path d="M6.5 19.25H10.25C11.2446 19.25 12.1984 19.6451 12.9017 20.3483C13.6049 21.0516 14 22.0054 14 23C14 23.9946 13.6049 24.9484 12.9017 25.6517C12.1984 26.3549 11.2446 26.75 10.25 26.75H6.5V19.25Z" stroke="black" stroke-width="2" stroke-linejoin="round"/>
<path d="M25.9506 16.2006L23.3 13.55M6.5 18V28V18ZM2.75 20.5H6.5H2.75ZM2.75 24.25H6.5H2.75ZM14 23H19C19.3315 23 19.6495 22.8683 19.8839 22.6339C20.1183 22.3995 20.25 22.0815 20.25 21.75V14.875L14 23ZM20.25 3V7.375V3ZM14.5494 5.42438L17.2006 8.07563L14.5494 5.42438ZM14.5494 16.2006L17.2006 13.5494L14.5494 16.2006ZM25.9506 5.42438L23.3 8.075L25.9506 5.42438Z" stroke="black" stroke-width="2" stroke-linecap="round" stroke-linejoin="round"/>
<path d="M20.25 14.875C22.3211 14.875 24 13.1961 24 11.125C24 9.05393 22.3211 7.375 20.25 7.375C18.1789 7.375 16.5 9.05393 16.5 11.125C16.5 13.1961 18.1789 14.875 20.25 14.875Z" stroke="black" stroke-width="2"/>
<path d="M24 11.125H27.75M12.75 11.125H16.5H12.75Z" stroke="black" stroke-width="2" stroke-linecap="round" stroke-linejoin="round"/>
</svg>
