<svg width="35" height="19" viewBox="0 0 35 19" fill="none" xmlns="http://www.w3.org/2000/svg">
<path d="M4.73833 3.70735H7.01326V15.2927H4.73833V3.70735ZM9.2882 3.70735H11.5631V15.2927H9.2882V3.70735ZM13.8381 3.70735H16.113V15.2927H13.8381V3.70735ZM18.3879 3.70735H20.6629V15.2927H18.3879V3.70735ZM22.9378 3.70735H25.2128V15.2927H22.9378V3.70735Z" fill="black"/>
<path d="M29.7626 4.63417V1.36653C29.7582 1.0011 29.5761 0.652022 29.2563 0.395852C28.9364 0.139681 28.5049 -0.00266416 28.0564 3.77738e-05H1.89367C1.44519 -0.00266416 1.0137 0.139681 0.693841 0.395852C0.373986 0.652022 0.191881 1.0011 0.187469 1.36653V17.6335C0.191881 17.9989 0.373986 18.348 0.693841 18.6041C1.0137 18.8603 1.44519 19.0027 1.89367 19H28.0564C28.5049 19.0027 28.9364 18.8603 29.2563 18.6041C29.5761 18.348 29.7582 17.9989 29.7626 17.6335V14.3658H34.3125V4.63417H29.7626ZM32.0376 12.5122H27.4877V17.1463H2.46241V1.85369H27.4877V6.48782H32.0376V12.5122Z" fill="black"/>
</svg>
