<svg width="31" height="24" viewBox="0 0 31 24" fill="none" xmlns="http://www.w3.org/2000/svg">
<path d="M26.1469 8V5.1795C26.1432 4.86408 25.9882 4.56277 25.716 4.34165C25.4439 4.12053 25.0767 3.99767 24.6951 4H9.92803L11.8638 5.6H24.2112V9.6H28.0826V14.8H25.179V16.4H30.0184V8H26.1469ZM9.12621 5.6L7.19048 4L2.35116 0H0.982414V1.13135L4.453 4H2.43337C2.05175 3.99767 1.6846 4.12053 1.41244 4.34165C1.14027 4.56277 0.985321 4.86408 0.981567 5.1795V19.2205C0.985321 19.5359 1.14027 19.8372 1.41244 20.0583C1.6846 20.2795 2.05175 20.4023 2.43337 20.4H24.2942L28.6496 24H30.0184V22.8687L16.1394 11.3968L9.12621 5.6ZM2.9173 18.8V5.6H6.38873L22.3585 18.8H2.9173Z" fill="black"/>
</svg>
