<svg width="37" height="50" viewBox="0 0 37 50" fill="none" xmlns="http://www.w3.org/2000/svg">
<path d="M36.6818 29.0909C36.6818 29.8485 36.4167 30.4924 35.8864 31.0227C35.3561 31.553 34.7121 31.8182 33.9545 31.8182C32.9886 31.8182 32.2311 31.411 31.6818 30.5966L25.2329 20.9091H23.9545V24.6591L30.9716 36.3352C31.142 36.6193 31.2273 36.9318 31.2273 37.2727C31.2273 37.7652 31.0473 38.1913 30.6875 38.5511C30.3276 38.911 29.9015 39.0909 29.4091 39.0909H23.9545V46.8182C23.9545 47.6894 23.642 48.4375 23.017 49.0625C22.392 49.6875 21.6439 50 20.7727 50H16.2273C15.3561 50 14.6079 49.6875 13.9829 49.0625C13.3579 48.4375 13.0454 47.6894 13.0454 46.8182V39.0909H7.5909C7.09848 39.0909 6.67234 38.911 6.31249 38.5511C5.95265 38.1913 5.77272 37.7652 5.77272 37.2727C5.77272 36.9318 5.85795 36.6193 6.0284 36.3352L13.0454 24.6591V20.9091H11.767L5.31818 30.5966C4.76893 31.411 4.01136 31.8182 3.04545 31.8182C2.28787 31.8182 1.64393 31.553 1.11363 31.0227C0.583328 30.4924 0.318176 29.8485 0.318176 29.0909C0.318176 28.5417 0.469691 28.0398 0.772722 27.5852L8.04545 16.6761C9.42802 14.6496 11.0947 13.6364 13.0454 13.6364H23.9545C25.9053 13.6364 27.572 14.6496 28.9545 16.6761L36.2273 27.5852C36.5303 28.0398 36.6818 28.5417 36.6818 29.0909ZM24.8636 6.36364C24.8636 8.125 24.2434 9.62595 23.0028 10.8665C21.7623 12.107 20.2614 12.7273 18.5 12.7273C16.7386 12.7273 15.2377 12.107 13.9972 10.8665C12.7566 9.62595 12.1364 8.125 12.1364 6.36364C12.1364 4.60227 12.7566 3.10133 13.9972 1.8608C15.2377 0.620265 16.7386 0 18.5 0C20.2614 0 21.7623 0.620265 23.0028 1.8608C24.2434 3.10133 24.8636 4.60227 24.8636 6.36364Z" fill="black"/>
</svg>
