<svg width="35" height="20" viewBox="0 0 35 20" fill="none" xmlns="http://www.w3.org/2000/svg">
<path d="M4.98834 4.20752H7.26328V15.7928H4.98834V4.20752ZM9.53821 4.20752H11.8132V15.7928H9.53821V4.20752ZM14.0881 4.20752H16.363V15.7928H14.0881V4.20752ZM18.638 4.20752H20.9129V15.7928H18.638V4.20752ZM23.1878 4.20752H25.4628V15.7928H23.1878V4.20752Z" fill="black"/>
<path d="M30.0127 5.13417V1.86653C30.0083 1.5011 29.8262 1.15202 29.5063 0.895852C29.1864 0.639681 28.755 0.497336 28.3065 0.500038H2.1437C1.69522 0.497336 1.26373 0.639681 0.943871 0.895852C0.624016 1.15202 0.441912 1.5011 0.4375 1.86653V18.1335C0.441912 18.4989 0.624016 18.848 0.943871 19.1041C1.26373 19.3603 1.69522 19.5027 2.1437 19.5H28.3065C28.755 19.5027 29.1864 19.3603 29.5063 19.1041C29.8262 18.848 30.0083 18.4989 30.0127 18.1335V14.8658H34.5625V5.13417H30.0127ZM32.2876 13.0122H27.7377V17.6463H2.71244V2.35369H27.7377V6.98782H32.2876V13.0122Z" fill="black"/>
</svg>
