<svg width="37" height="36" viewBox="0 0 37 36" fill="none" xmlns="http://www.w3.org/2000/svg">
<path fill-rule="evenodd" clip-rule="evenodd" d="M28 7C28.4596 7 28.9147 6.90947 29.3394 6.73358C29.764 6.55769 30.1499 6.29988 30.4749 5.97487C30.7999 5.64987 31.0577 5.26403 31.2336 4.83939C31.4095 4.41475 31.5 3.95963 31.5 3.5C31.5 3.04037 31.4095 2.58525 31.2336 2.16061C31.0577 1.73597 30.7999 1.35013 30.4749 1.02513C30.1499 0.700121 29.764 0.442313 29.3394 0.266422C28.9147 0.0905303 28.4596 -6.84897e-09 28 0C27.0717 1.38321e-08 26.1815 0.368749 25.5251 1.02513C24.8687 1.6815 24.5 2.57174 24.5 3.5C24.5 4.42826 24.8687 5.3185 25.5251 5.97487C26.1815 6.63125 27.0717 7 28 7ZM33.149 14C33.199 14.352 33.242 14.729 33.281 15.122C33.499 17.367 33.5 19.801 33.5 20.5C33.5 20.8978 33.658 21.2794 33.9393 21.5607C34.2206 21.842 34.6022 22 35 22C35.3978 22 35.7793 21.842 36.0606 21.5607C36.342 21.2794 36.5 20.8978 36.5 20.5V20.493C36.5 19.786 36.5 17.229 36.267 14.831C36.151 13.641 35.97 12.401 35.67 11.425C35.522 10.946 35.315 10.423 34.999 9.989C34.682 9.555 34.09 9 33.189 9H22.81C21.909 9 21.317 9.555 21 9.99C20.684 10.423 20.477 10.946 20.33 11.425C20.03 12.401 19.848 13.642 19.732 14.831C19.5 17.229 19.5 19.786 19.5 20.493V20.5C19.5 20.8978 19.658 21.2794 19.9393 21.5607C20.2206 21.842 20.6022 22 21 22C21.3978 22 21.7793 21.842 22.0606 21.5607C22.342 21.2794 22.5 20.8978 22.5 20.5C22.5 19.8 22.5 17.367 22.72 15.122C22.758 14.729 22.802 14.352 22.851 14H23.5V34.5C23.5006 34.887 23.6508 35.2588 23.9191 35.5377C24.1875 35.8166 24.5532 35.981 24.9399 35.9964C25.3266 36.0119 25.7044 35.8774 25.9942 35.6208C26.284 35.3643 26.4634 35.0057 26.495 34.62L27.345 24H28.655L29.505 34.62C29.5366 35.0057 29.716 35.3643 30.0058 35.6208C30.2956 35.8774 30.6733 36.0119 31.06 35.9964C31.4468 35.981 31.8125 35.8166 32.0809 35.5377C32.3492 35.2588 32.4994 34.887 32.5 34.5V14H33.149ZM12.5 3.5C12.5 3.95963 12.4095 4.41475 12.2336 4.83939C12.0577 5.26403 11.7999 5.64987 11.4749 5.97487C11.1499 6.29988 10.764 6.55769 10.3394 6.73358C9.91474 6.90947 9.45961 7 8.99999 7C8.54036 7 8.08524 6.90947 7.6606 6.73358C7.23596 6.55769 6.85012 6.29988 6.52511 5.97487C6.20011 5.64987 5.9423 5.26403 5.76641 4.83939C5.59052 4.41475 5.49999 3.95963 5.49999 3.5C5.49999 2.57174 5.86874 1.6815 6.52511 1.02513C7.18149 0.368749 8.07173 0 8.99999 0C9.92824 0 10.8185 0.368749 11.4749 1.02513C12.1312 1.6815 12.5 2.57174 12.5 3.5ZM13.366 9.046C13.2463 9.016 13.1234 9.00089 13 9.001H4.99799C4.87499 9.001 4.75299 9.017 4.63399 9.047C3.51999 9.327 2.77199 10.006 2.30099 10.932C1.88799 11.744 1.68699 12.752 1.52099 13.755L0.520987 19.755C0.486044 19.9504 0.490225 20.1508 0.533287 20.3445C0.576349 20.5383 0.657436 20.7215 0.771849 20.8837C0.886262 21.0459 1.03173 21.1838 1.19981 21.2894C1.36789 21.3949 1.55526 21.4661 1.75104 21.4987C1.94682 21.5313 2.14714 21.5247 2.34036 21.4794C2.53359 21.434 2.7159 21.3508 2.87672 21.2344C3.03753 21.1181 3.17366 20.971 3.27722 20.8017C3.38078 20.6324 3.44969 20.4442 3.47999 20.248L4.47999 14.248C4.57199 13.691 4.65799 13.266 4.74499 12.938L4.99999 16C4.99999 17.87 3.30599 26.408 2.70699 29.37C2.67997 29.5017 2.68007 29.6375 2.70729 29.7691C2.73451 29.9007 2.78827 30.0254 2.86529 30.1355C2.94231 30.2457 3.04097 30.339 3.15526 30.4097C3.26954 30.4805 3.39705 30.5272 3.52999 30.547C7.65199 31.161 10.348 31.142 14.469 30.543C14.602 30.5237 14.7297 30.4776 14.8443 30.4074C14.9588 30.3372 15.0579 30.2444 15.1355 30.1346C15.2131 30.0249 15.2675 29.9005 15.2954 29.769C15.3233 29.6376 15.3242 29.5018 15.298 29.37C14.703 26.36 13 17.606 13 16L13.255 12.938C13.342 13.266 13.428 13.69 13.52 14.248L14.52 20.248C14.5855 20.6405 14.8042 20.9909 15.1281 21.2222C15.452 21.4534 15.8545 21.5465 16.247 21.481C16.6395 21.4155 16.9899 21.1967 17.2212 20.8729C17.4524 20.549 17.5455 20.1465 17.48 19.754L16.48 13.754C16.313 12.752 16.112 11.743 15.7 10.932C15.229 10.005 14.48 9.327 13.366 9.046ZM5.50799 35.124L5.13099 32.111C6.19099 32.241 7.19799 32.326 8.18999 32.364L7.46999 35.243C7.41313 35.4691 7.27904 35.6683 7.09089 35.8061C6.90275 35.9438 6.67238 36.0115 6.43963 35.9973C6.20687 35.9832 5.98637 35.8882 5.81625 35.7287C5.64613 35.5693 5.53709 35.3554 5.50799 35.124ZM10.53 35.242L9.81599 32.385C10.8314 32.3716 11.8457 32.3135 12.856 32.211L12.492 35.124C12.4627 35.3553 12.3536 35.5691 12.1834 35.7285C12.0132 35.8878 11.7927 35.9827 11.5599 35.9967C11.3272 36.0107 11.0969 35.9429 10.9088 35.8051C10.7208 35.6673 10.5868 35.4681 10.53 35.242Z" fill="black"/>
</svg>
