<svg width="19" height="26" viewBox="0 0 19 26" fill="none" xmlns="http://www.w3.org/2000/svg">
<path fill-rule="evenodd" clip-rule="evenodd" d="M13.25 0.5C11.5244 0.5 10.125 1.99875 10.125 3.84812V16.5969C9.31634 17.2443 8.72875 18.1269 8.44341 19.1228C8.15808 20.1186 8.1891 21.1785 8.53218 22.156C8.87527 23.1334 9.51348 23.9802 10.3586 24.5792C11.2038 25.1782 12.2141 25.5 13.25 25.5C14.2859 25.5 15.2962 25.1782 16.1414 24.5792C16.9865 23.9802 17.6247 23.1334 17.9678 22.156C18.3109 21.1785 18.3419 20.1186 18.0566 19.1228C17.7713 18.1269 17.1837 17.2443 16.375 16.5969V3.84812C16.375 1.99875 14.9756 0.5 13.25 0.5ZM15.125 11.7881C14.2144 11.8031 13.3612 11.5819 12.6137 11.3881C12.1575 11.2694 11.7413 11.1619 11.375 11.1244V3.84812C11.375 2.73875 12.2144 1.83937 13.25 1.83937C14.2856 1.83937 15.125 2.73875 15.125 3.84812V4.235H13.875C13.7092 4.235 13.5503 4.30085 13.4331 4.41806C13.3158 4.53527 13.25 4.69424 13.25 4.86C13.25 5.02576 13.3158 5.18473 13.4331 5.30194C13.5503 5.41915 13.7092 5.485 13.875 5.485H15.125V6.735H13.875C13.7092 6.735 13.5503 6.80085 13.4331 6.91806C13.3158 7.03527 13.25 7.19424 13.25 7.36C13.25 7.52576 13.3158 7.68473 13.4331 7.80194C13.5503 7.91915 13.7092 7.985 13.875 7.985H15.125V9.235H13.875C13.7092 9.235 13.5503 9.30085 13.4331 9.41806C13.3158 9.53527 13.25 9.69424 13.25 9.86C13.25 10.0258 13.3158 10.1847 13.4331 10.3019C13.5503 10.4192 13.7092 10.485 13.875 10.485H15.125V11.7881Z" fill="black"/>
<path d="M4.70625 5.5C4.70625 5.33424 4.64041 5.17527 4.5232 5.05806C4.40599 4.94085 4.24701 4.875 4.08125 4.875C3.91549 4.875 3.75652 4.94085 3.63931 5.05806C3.5221 5.17527 3.45625 5.33424 3.45625 5.5V7.5425L1.6875 6.52125C1.6164 6.47956 1.53775 6.45235 1.45608 6.44119C1.37442 6.43002 1.29135 6.43512 1.21166 6.45619C1.13198 6.47726 1.05724 6.51388 0.991768 6.56395C0.926292 6.61401 0.871366 6.67654 0.830153 6.74792C0.788939 6.8193 0.762252 6.89813 0.751628 6.97987C0.741004 7.06161 0.746652 7.14464 0.768248 7.22418C0.789845 7.30373 0.826962 7.37822 0.877463 7.44336C0.927964 7.5085 0.990851 7.56301 1.0625 7.60375L2.83125 8.625L1.0625 9.64625C0.990851 9.68699 0.927964 9.7415 0.877463 9.80664C0.826962 9.87178 0.789845 9.94627 0.768248 10.0258C0.746652 10.1054 0.741004 10.1884 0.751628 10.2701C0.762252 10.3519 0.788939 10.4307 0.830153 10.5021C0.871366 10.5735 0.926292 10.636 0.991768 10.6861C1.05724 10.7361 1.13198 10.7727 1.21166 10.7938C1.29135 10.8149 1.37442 10.82 1.45608 10.8088C1.53775 10.7976 1.6164 10.7704 1.6875 10.7287L3.45625 9.7075V11.75C3.45625 11.9158 3.5221 12.0747 3.63931 12.1919C3.75652 12.3092 3.91549 12.375 4.08125 12.375C4.24701 12.375 4.40599 12.3092 4.5232 12.1919C4.64041 12.0747 4.70625 11.9158 4.70625 11.75V9.7075L6.475 10.7287C6.54611 10.7704 6.62476 10.7976 6.70643 10.8088C6.78809 10.82 6.87116 10.8149 6.95085 10.7938C7.03053 10.7727 7.10527 10.7361 7.17074 10.6861C7.23622 10.636 7.29114 10.5735 7.33236 10.5021C7.37357 10.4307 7.40026 10.3519 7.41088 10.2701C7.4215 10.1884 7.41586 10.1054 7.39426 10.0258C7.37266 9.94627 7.33555 9.87178 7.28505 9.80664C7.23455 9.7415 7.17166 9.68699 7.1 9.64625L5.33125 8.625L7.1 7.60375C7.17166 7.56301 7.23455 7.5085 7.28505 7.44336C7.33555 7.37822 7.37266 7.30373 7.39426 7.22418C7.41586 7.14464 7.4215 7.06161 7.41088 6.97987C7.40026 6.89813 7.37357 6.8193 7.33236 6.74792C7.29114 6.67654 7.23622 6.61401 7.17074 6.56395C7.10527 6.51388 7.03053 6.47726 6.95085 6.45619C6.87116 6.43512 6.78809 6.43002 6.70643 6.44119C6.62476 6.45235 6.54611 6.47956 6.475 6.52125L4.70625 7.5425V5.5Z" fill="black"/>
</svg>
