<svg width="31" height="30" viewBox="0 0 31 30" fill="none" xmlns="http://www.w3.org/2000/svg">
<path d="M25.9691 15.8344L20.8625 12.1875L25.9691 8.53969L28.3288 9.32625L28.9212 7.54781L26.75 6.82406V4.6875H24.875V7.01719L20.1875 10.3659V5.03156L22.5828 3.435L21.5422 1.875L19.25 3.40313L16.9578 1.875L15.9172 3.435L18.3125 5.03156V10.3659L15.5 8.35687V10.6612L17.6375 12.1875L15.5 13.7138V16.0181L18.3125 14.0091V20.3466L21.5422 22.5L22.5828 20.94L20.1875 19.3434V14.0091L24.875 17.3578V19.6875H26.75V17.5509L28.9212 16.8262L28.3288 15.0478L25.9691 15.8344V15.8344ZM11.75 21.5625C11.75 22.3084 11.4537 23.0238 10.9262 23.5512C10.3988 24.0787 9.68342 24.375 8.9375 24.375C8.19158 24.375 7.47621 24.0787 6.94876 23.5512C6.42132 23.0238 6.125 22.3084 6.125 21.5625H11.75Z" fill="black"/>
<path d="M8.93751 28.125C7.64561 28.1265 6.38208 27.7462 5.30558 27.0319C4.22907 26.3177 3.38759 25.3013 2.8868 24.1104C2.38601 22.9195 2.24823 21.6072 2.49076 20.3383C2.73329 19.0694 3.34533 17.9004 4.25001 16.9781V6.5625C4.25001 5.3193 4.74387 4.12701 5.62294 3.24794C6.50202 2.36886 7.6943 1.875 8.93751 1.875C10.1807 1.875 11.373 2.36886 12.2521 3.24794C13.1311 4.12701 13.625 5.3193 13.625 6.5625V16.9781C14.5297 17.9004 15.1417 19.0694 15.3843 20.3383C15.6268 21.6072 15.489 22.9195 14.9882 24.1104C14.4874 25.3013 13.6459 26.3177 12.5694 27.0319C11.4929 27.7462 10.2294 28.1265 8.93751 28.125ZM8.93751 3.75C8.19181 3.75074 7.47688 4.0473 6.94959 4.57458C6.42231 5.10187 6.12575 5.81681 6.12501 6.5625V17.7966L5.81376 18.0769C5.10583 18.7096 4.60674 19.5424 4.38255 20.465C4.15836 21.3877 4.21964 22.3566 4.55827 23.2437C4.89691 24.1307 5.49694 24.894 6.27894 25.4325C7.06093 25.971 7.98803 26.2593 8.93751 26.2593C9.88699 26.2593 10.8141 25.971 11.5961 25.4325C12.3781 24.894 12.9781 24.1307 13.3167 23.2437C13.6554 22.3566 13.7167 21.3877 13.4925 20.465C13.2683 19.5424 12.7692 18.7096 12.0613 18.0769L11.75 17.7966V6.5625C11.7493 5.81681 11.4527 5.10187 10.9254 4.57458C10.3981 4.0473 9.6832 3.75074 8.93751 3.75V3.75Z" fill="black"/>
</svg>
