<svg width="14" height="28" viewBox="0 0 14 28" fill="none" xmlns="http://www.w3.org/2000/svg">
<path d="M6.93751 27.125C5.64561 27.1265 4.38208 26.7462 3.30558 26.0319C2.22907 25.3177 1.38759 24.3013 0.886801 23.1104C0.386007 21.9195 0.248226 20.6072 0.490759 19.3383C0.733291 18.0694 1.34533 16.9004 2.25001 15.9781V5.5625C2.25001 4.3193 2.74387 3.12701 3.62294 2.24794C4.50202 1.36886 5.6943 0.875 6.93751 0.875C8.18071 0.875 9.37299 1.36886 10.2521 2.24794C11.1311 3.12701 11.625 4.3193 11.625 5.5625V15.9781C12.5297 16.9004 13.1417 18.0694 13.3843 19.3383C13.6268 20.6072 13.489 21.9195 12.9882 23.1104C12.4874 24.3013 11.6459 25.3177 10.5694 26.0319C9.49294 26.7462 8.22941 27.1265 6.93751 27.125ZM6.93751 2.75C6.19181 2.75074 5.47688 3.0473 4.94959 3.57458C4.42231 4.10187 4.12575 4.81681 4.12501 5.5625V16.7966L3.81376 17.0769C3.10583 17.7096 2.60674 18.5424 2.38255 19.465C2.15836 20.3877 2.21964 21.3566 2.55827 22.2437C2.89691 23.1307 3.49694 23.894 4.27894 24.4325C5.06093 24.971 5.98803 25.2593 6.93751 25.2593C7.88699 25.2593 8.81408 24.971 9.59608 24.4325C10.3781 23.894 10.9781 23.1307 11.3167 22.2437C11.6554 21.3566 11.7167 20.3877 11.4925 19.465C11.2683 18.5424 10.7692 17.7096 10.0613 17.0769L9.75001 16.7966V5.5625C9.74926 4.81681 9.45271 4.10187 8.92542 3.57458C8.39814 3.0473 7.6832 2.75074 6.93751 2.75Z" fill="black"/>
</svg>
