<svg width="30" height="30" viewBox="0 0 30 30" fill="none" xmlns="http://www.w3.org/2000/svg">
<path d="M18.75 9.375H25.3125V11.25H18.75V9.375ZM18.75 15H28.125V16.875H18.75V15ZM18.75 20.625H25.3125V22.5H18.75V20.625ZM9.37501 18.9225V6.5625H7.50001V18.9225C6.87449 19.1437 6.3473 19.5788 6.0116 20.1511C5.6759 20.7233 5.55332 21.3958 5.66551 22.0498C5.7777 22.7037 6.11745 23.2968 6.6247 23.7245C7.13195 24.1521 7.77405 24.3866 8.43751 24.3866C9.10096 24.3866 9.74306 24.1521 10.2503 23.7245C10.7576 23.2968 11.0973 22.7037 11.2095 22.0498C11.3217 21.3958 11.1991 20.7233 10.8634 20.1511C10.5277 19.5788 10.0005 19.1437 9.37501 18.9225V18.9225Z" fill="black"/>
<path d="M28.125 3.75H12.1631C11.5749 2.96316 10.7536 2.38179 9.81597 2.08855C8.87834 1.79531 7.87214 1.80512 6.94041 2.11659C6.00869 2.42807 5.19887 3.02535 4.6261 3.82351C4.05334 4.62168 3.74677 5.58009 3.75 6.5625V16.9781C2.84563 17.9012 2.23389 19.0706 1.99149 20.3399C1.74909 21.6092 1.88683 22.9218 2.38744 24.1132C2.88804 25.3045 3.72922 26.3215 4.80551 27.0367C5.88179 27.7519 7.14527 28.1334 8.4375 28.1334C9.72974 28.1334 10.9932 27.7519 12.0695 27.0367C13.1458 26.3215 13.987 25.3045 14.4876 24.1132C14.9882 22.9218 15.1259 21.6092 14.8835 20.3399C14.6411 19.0706 14.0294 17.9012 13.125 16.9781V6.5625C13.125 6.24761 13.0933 5.93353 13.0303 5.625H28.125V3.75ZM8.4375 26.25C7.48851 26.2514 6.56151 25.9643 5.77943 25.4267C4.99734 24.8892 4.3971 24.1267 4.0583 23.2402C3.7195 22.3538 3.65814 21.3853 3.88235 20.4631C4.10656 19.541 4.60576 18.7088 5.31375 18.0769L5.625 17.7966V6.5625C5.625 5.81658 5.92132 5.10121 6.44877 4.57376C6.97621 4.04631 7.69158 3.75 8.4375 3.75C9.18342 3.75 9.89879 4.04631 10.4262 4.57376C10.9537 5.10121 11.25 5.81658 11.25 6.5625V17.7966L11.5613 18.0769C12.2692 18.7088 12.7684 19.541 12.9927 20.4631C13.2169 21.3853 13.1555 22.3538 12.8167 23.2402C12.4779 24.1267 11.8777 24.8892 11.0956 25.4267C10.3135 25.9643 9.3865 26.2514 8.4375 26.25Z" fill="black"/>
</svg>
