<svg width="28" height="28" viewBox="0 0 28 28" fill="none" xmlns="http://www.w3.org/2000/svg">
<path d="M27.125 2.75H11.1631C10.5749 1.96316 9.75359 1.38179 8.81597 1.08855C7.87834 0.795305 6.87214 0.80512 5.94041 1.11659C5.00869 1.42807 4.19887 2.02535 3.6261 2.82351C3.05334 3.62168 2.74677 4.58009 2.75 5.5625V15.9781C1.84563 16.9011 1.23389 18.0706 0.99149 19.3399C0.749094 20.6092 0.886834 21.9218 1.38744 23.1132C1.88804 24.3045 2.72922 25.3215 3.80551 26.0367C4.88179 26.7519 6.14527 27.1334 7.4375 27.1334C8.72974 27.1334 9.99322 26.7519 11.0695 26.0367C12.1458 25.3215 12.987 24.3045 13.4876 23.1132C13.9882 21.9218 14.1259 20.6092 13.8835 19.3399C13.6411 18.0706 13.0294 16.9011 12.125 15.9781V5.5625C12.125 5.24761 12.0933 4.93353 12.0303 4.625H27.125V2.75ZM7.4375 25.25C6.48851 25.2514 5.56151 24.9643 4.77943 24.4267C3.99734 23.8892 3.3971 23.1267 3.0583 22.2402C2.7195 21.3538 2.65814 20.3853 2.88235 19.4631C3.10656 18.541 3.60576 17.7088 4.31375 17.0769L4.625 16.7966V5.5625C4.625 4.81658 4.92132 4.10121 5.44877 3.57376C5.97621 3.04631 6.69158 2.75 7.4375 2.75C8.18342 2.75 8.8988 3.04631 9.42624 3.57376C9.95369 4.10121 10.25 4.81658 10.25 5.5625V16.7966L10.5613 17.0769C11.2692 17.7088 11.7684 18.541 11.9927 19.4631C12.2169 20.3853 12.1555 21.3538 11.8167 22.2402C11.4779 23.1267 10.8777 23.8892 10.0956 24.4267C9.31349 24.9643 8.3865 25.2514 7.4375 25.25Z" fill="black"/>
</svg>
