<?xml version="1.0" encoding="UTF-8" standalone="no"?>
<!DOCTYPE svg PUBLIC "-//W3C//DTD SVG 1.1//EN"
 "http://www.w3.org/Graphics/SVG/1.1/DTD/svg11.dtd">
<!-- Generated by graphviz version 2.47.3 (20210619.1520)
 -->
<!-- Title: dependencies Pages: 1 -->
<svg width="376pt" height="174pt"
 viewBox="0.00 0.00 376.00 173.80" xmlns="http://www.w3.org/2000/svg" xmlns:xlink="http://www.w3.org/1999/xlink">
<g id="graph0" class="graph" transform="scale(1 1) rotate(0) translate(4 169.8)">
<title>dependencies</title>
<polygon fill="white" stroke="transparent" points="-4,4 -4,-169.8 372,-169.8 372,4 -4,4"/>
<text text-anchor="middle" x="184" y="-8.2" font-family="sans-serif" font-size="14.00">dependencies</text>
<g id="clust1" class="cluster">
<title>cluster_ThankYouPageModule</title>
<polygon fill="none" stroke="black" stroke-dasharray="1,5" points="8,-32.8 8,-157.8 360,-157.8 360,-32.8 8,-32.8"/>
</g>
<g id="clust4" class="cluster">
<title>cluster_ThankYouPageModule_imports</title>
<polygon fill="none" stroke="black" points="144,-40.8 144,-92.8 352,-92.8 352,-40.8 144,-40.8"/>
</g>
<g id="clust2" class="cluster">
<title>cluster_ThankYouPageModule_declarations</title>
<polygon fill="none" stroke="black" points="16,-40.8 16,-92.8 136,-92.8 136,-40.8 16,-40.8"/>
</g>
<!-- ThankYouPage -->
<g id="node1" class="node">
<title>ThankYouPage</title>
<polygon fill="#ffffb3" stroke="black" points="127.59,-84.8 24.41,-84.8 24.41,-48.8 127.59,-48.8 127.59,-84.8"/>
<text text-anchor="middle" x="76" y="-62.6" font-family="Times,serif" font-size="14.00">ThankYouPage</text>
</g>
<!-- ThankYouPageModule -->
<g id="node2" class="node">
<title>ThankYouPageModule</title>
<polygon fill="#8dd3c7" stroke="black" points="241.14,-149.8 238.14,-153.8 217.14,-153.8 214.14,-149.8 94.86,-149.8 94.86,-113.8 241.14,-113.8 241.14,-149.8"/>
<text text-anchor="middle" x="168" y="-127.6" font-family="Times,serif" font-size="14.00">ThankYouPageModule</text>
</g>
<!-- ThankYouPage&#45;&gt;ThankYouPageModule -->
<g id="edge1" class="edge">
<title>ThankYouPage&#45;&gt;ThankYouPageModule</title>
<path fill="none" stroke="black" d="M111.11,-84.91C111.11,-84.91 111.11,-103.79 111.11,-103.79"/>
<polygon fill="black" stroke="black" points="107.61,-103.79 111.11,-113.79 114.61,-103.79 107.61,-103.79"/>
</g>
<!-- ThankYouPageRoutingModule -->
<g id="node3" class="node">
<title>ThankYouPageRoutingModule</title>
<polygon fill="#8dd3c7" stroke="black" points="343.75,-84.8 340.75,-88.8 319.75,-88.8 316.75,-84.8 152.25,-84.8 152.25,-48.8 343.75,-48.8 343.75,-84.8"/>
<text text-anchor="middle" x="248" y="-62.6" font-family="Times,serif" font-size="14.00">ThankYouPageRoutingModule</text>
</g>
<!-- ThankYouPageRoutingModule&#45;&gt;ThankYouPageModule -->
<g id="edge2" class="edge">
<title>ThankYouPageRoutingModule&#45;&gt;ThankYouPageModule</title>
<path fill="none" stroke="black" d="M196.72,-84.91C196.72,-84.91 196.72,-103.79 196.72,-103.79"/>
<polygon fill="black" stroke="black" points="193.22,-103.79 196.72,-113.79 200.22,-103.79 193.22,-103.79"/>
</g>
</g>
</svg>
