<svg width="19" height="19" viewBox="0 0 19 19" fill="none" xmlns="http://www.w3.org/2000/svg">
<path d="M12.6668 17.4166H3.16683C2.7469 17.4166 2.34418 17.2498 2.04724 16.9528C1.75031 16.6559 1.5835 16.2532 1.5835 15.8333V6.33325H3.16683V15.8333H12.6668V17.4166ZM15.8335 14.2499H6.3335C5.91357 14.2499 5.51084 14.0831 5.21391 13.7862C4.91698 13.4892 4.75016 13.0865 4.75016 12.6666V3.16659C4.75016 2.74666 4.91698 2.34393 5.21391 2.047C5.51084 1.75007 5.91357 1.58325 6.3335 1.58325H15.8335C16.2534 1.58325 16.6562 1.75007 16.9531 2.047C17.25 2.34393 17.4168 2.74666 17.4168 3.16659V12.6666C17.4168 13.0865 17.25 13.4892 16.9531 13.7862C16.6562 14.0831 16.2534 14.2499 15.8335 14.2499ZM6.3335 3.16659V12.6666H15.8335V3.16659H6.3335ZM11.8752 11.0833H10.2918V8.70825H7.91683V7.12492H10.2918V4.74992H11.8752V7.12492H14.2502V8.70825H11.8752V11.0833Z" fill="black"/>
</svg>
