<svg width="16" height="18" viewBox="0 0 16 18" fill="none" xmlns="http://www.w3.org/2000/svg">
<path d="M11.0833 8.3125C12.2381 8.3125 13.3456 8.77124 14.1622 9.5878C14.9788 10.4044 15.4375 11.5119 15.4375 12.6667C15.4375 13.8215 14.9788 14.929 14.1622 15.7455C13.3456 16.5621 12.2381 17.0208 11.0833 17.0208C9.92854 17.0208 8.82104 16.5621 8.00447 15.7455C7.18791 14.929 6.72917 13.8215 6.72917 12.6667C6.72917 11.5119 7.18791 10.4044 8.00447 9.5878C8.82104 8.77124 9.92854 8.3125 11.0833 8.3125ZM7.52083 0C8.2557 0 8.96048 0.291926 9.48011 0.811558C9.99974 1.33119 10.2917 2.03596 10.2917 2.77083H14.25C14.46 2.77083 14.6613 2.85424 14.8098 3.00271C14.9583 3.15117 15.0417 3.35254 15.0417 3.5625C15.0417 3.77246 14.9583 3.97383 14.8098 4.12229C14.6613 4.27076 14.46 4.35417 14.25 4.35417H13.581L13.224 7.98554C12.1349 7.48665 10.9058 7.3834 9.74867 7.69357C8.59156 8.00375 7.57893 8.70792 6.88535 9.68468C6.19178 10.6614 5.86073 11.8496 5.94928 13.0443C6.03782 14.239 6.54042 15.3653 7.37042 16.2292H4.60117C4.06074 16.2292 3.5396 16.0283 3.13912 15.6654C2.73863 15.3025 2.48744 14.8037 2.43437 14.2658L1.46062 4.35417H0.791667C0.581704 4.35417 0.38034 4.27076 0.231874 4.12229C0.0834075 3.97383 0 3.77246 0 3.5625C0 3.35254 0.0834075 3.15117 0.231874 3.00271C0.38034 2.85424 0.581704 2.77083 0.791667 2.77083H4.75C4.75 2.03596 5.04193 1.33119 5.56156 0.811558C6.08119 0.291926 6.78596 0 7.52083 0ZM8.87933 10.3621L8.82392 10.4072L8.77879 10.4627C8.73317 10.5288 8.70874 10.6072 8.70874 10.6875C8.70874 10.7678 8.73317 10.8462 8.77879 10.9123L8.82392 10.9677L10.5236 12.6667L8.82392 14.3656L8.77879 14.421C8.73317 14.4871 8.70874 14.5655 8.70874 14.6458C8.70874 14.7261 8.73317 14.8046 8.77879 14.8707L8.82392 14.9261L8.87933 14.9712C8.94544 15.0168 9.02385 15.0413 9.10417 15.0413C9.18448 15.0413 9.2629 15.0168 9.329 14.9712L9.38442 14.9261L11.0833 13.2264L12.7823 14.9261L12.8377 14.9712C12.9038 15.0168 12.9822 15.0413 13.0625 15.0413C13.1428 15.0413 13.2212 15.0168 13.2873 14.9712L13.3428 14.9261L13.3879 14.8707C13.4335 14.8046 13.4579 14.7261 13.4579 14.6458C13.4579 14.5655 13.4335 14.4871 13.3879 14.421L13.3428 14.3656L11.643 12.6667L13.3428 10.9677L13.3879 10.9123C13.4335 10.8462 13.4579 10.7678 13.4579 10.6875C13.4579 10.6072 13.4335 10.5288 13.3879 10.4627L13.3428 10.4072L13.2873 10.3621C13.2212 10.3165 13.1428 10.2921 13.0625 10.2921C12.9822 10.2921 12.9038 10.3165 12.8377 10.3621L12.7823 10.4072L11.0833 12.107L9.38442 10.4072L9.329 10.3621C9.27265 10.3231 9.20713 10.2994 9.13885 10.2933C9.07057 10.2871 9.00188 10.2989 8.9395 10.3273L8.87933 10.3621ZM7.52083 1.58333C7.20589 1.58333 6.90384 1.70844 6.68114 1.93114C6.45844 2.15384 6.33333 2.45589 6.33333 2.77083H8.70833C8.70833 2.45589 8.58322 2.15384 8.36052 1.93114C8.13782 1.70844 7.83578 1.58333 7.52083 1.58333Z" fill="black"/>
</svg>
