<svg width="18" height="18" viewBox="0 0 18 18" fill="none" xmlns="http://www.w3.org/2000/svg">
<path d="M9.75 15C9.75 14.5858 9.41421 14.25 9 14.25C8.58579 14.25 8.25 14.5858 8.25 15C8.25 15.4142 8.58579 15.75 9 15.75C9.41421 15.75 9.75 15.4142 9.75 15Z" stroke="black" stroke-width="2"/>
<path d="M9.75 9C9.75 8.58579 9.41421 8.25 9 8.25C8.58579 8.25 8.25 8.58579 8.25 9C8.25 9.41421 8.58579 9.75 9 9.75C9.41421 9.75 9.75 9.41421 9.75 9Z" stroke="black" stroke-width="2"/>
<path d="M9.75 3C9.75 2.58579 9.41421 2.25 9 2.25C8.58579 2.25 8.25 2.58579 8.25 3C8.25 3.41421 8.58579 3.75 9 3.75C9.41421 3.75 9.75 3.41421 9.75 3Z" stroke="black" stroke-width="2"/>
</svg>
