<?xml version="1.0" standalone="no"?>
<!DOCTYPE svg PUBLIC "-//W3C//DTD SVG 20010904//EN"
 "http://www.w3.org/TR/2001/REC-SVG-20010904/DTD/svg10.dtd">
<svg version="1.0" xmlns="http://www.w3.org/2000/svg"
 width="160.000000pt" height="200.000000pt" viewBox="0 0 160.000000 200.000000"
 preserveAspectRatio="xMidYMid meet">

<g transform="translate(0.000000,200.000000) scale(0.100000,-0.100000)"
fill="#000000" stroke="none">
<path d="M1058 1847 c-148 -312 -177 -398 -158 -466 24 -91 109 -142 237 -142
89 0 168 32 205 84 34 47 36 133 5 227 -38 119 -189 440 -207 440 -9 0 -39
-52 -82 -143z m127 -24 c150 -314 173 -408 118 -474 -60 -70 -182 -90 -278
-45 -100 46 -110 111 -41 276 57 138 146 320 156 320 5 0 25 -35 45 -77z"/>
<path d="M243 1453 c-193 -309 -228 -395 -221 -552 5 -118 31 -182 95 -242 55
-51 111 -76 194 -88 169 -24 324 51 388 188 51 109 30 285 -54 451 -65 127
-252 415 -271 418 -15 2 -44 -38 -131 -175z m147 88 c0 -5 16 -32 35 -60 19
-28 35 -53 35 -57 0 -3 10 -20 23 -37 12 -17 27 -39 32 -49 6 -10 31 -53 58
-97 130 -216 140 -439 24 -545 -63 -56 -111 -71 -232 -71 -123 0 -161 13 -222
77 -53 55 -73 111 -73 208 0 139 36 234 166 440 36 58 80 126 96 153 26 42 58
63 58 38z"/>
<path d="M1049 918 c-200 -315 -245 -427 -237 -583 6 -107 34 -171 105 -235
167 -153 470 -103 569 93 44 85 43 221 -2 355 -22 68 -67 150 -175 324 -56 90
-108 173 -115 186 -8 12 -21 22 -28 22 -8 0 -61 -73 -117 -162z m221 -81 c123
-197 166 -284 186 -375 33 -149 4 -260 -85 -331 -65 -52 -106 -65 -206 -65
-79 -1 -97 2 -147 27 -167 82 -205 276 -100 500 38 83 234 397 247 397 6 0 53
-69 105 -153z"/>
<path d="M1375 430 c-4 -6 -4 -28 0 -49 10 -58 -10 -116 -56 -162 -42 -42 -50
-69 -21 -69 25 0 91 65 108 106 14 34 19 139 8 168 -7 18 -30 21 -39 6z"/>
</g>
</svg>
