<?xml version="1.0" standalone="no"?>
<!DOCTYPE svg PUBLIC "-//W3C//DTD SVG 20010904//EN"
 "http://www.w3.org/TR/2001/REC-SVG-20010904/DTD/svg10.dtd">
<svg version="1.0" xmlns="http://www.w3.org/2000/svg"
 width="216.000000pt" height="233.000000pt" viewBox="0 0 216.000000 233.000000"
 preserveAspectRatio="xMidYMid meet">

<g transform="translate(0.000000,233.000000) scale(0.100000,-0.100000)"
fill="#000000" stroke="none">
<path d="M1113 2310 c-62 -37 -62 -39 -89 -510 -3 -58 -7 -121 -9 -140 -2 -19
-7 -104 -11 -188 -6 -143 -17 -193 -28 -140 -5 20 -19 135 -81 660 -16 136
-32 174 -82 195 -50 20 -95 10 -131 -31 l-29 -34 -6 -513 c-3 -318 -10 -553
-17 -617 -13 -101 -13 -102 -32 -85 -26 23 -41 54 -68 132 -26 79 -89 183
-159 261 -106 121 -187 143 -230 62 -15 -29 -10 -52 31 -140 20 -44 33 -93 39
-142 9 -83 34 -161 102 -320 25 -58 57 -144 71 -191 32 -105 59 -147 175 -274
99 -107 150 -179 182 -250 18 -41 23 -45 55 -45 32 0 35 2 29 23 -28 93 -89
183 -220 327 -100 109 -131 158 -151 234 -8 30 -46 130 -84 221 -65 155 -80
209 -95 325 -3 25 -21 79 -40 119 -49 109 -34 120 51 39 65 -61 145 -177 168
-242 9 -25 24 -67 33 -93 10 -30 36 -67 68 -100 48 -47 53 -56 59 -110 7 -65
35 -173 47 -187 5 -5 21 -4 38 4 24 9 29 16 22 29 -16 29 -43 168 -39 202 3
37 6 37 80 18 45 -12 57 -40 65 -157 5 -66 9 -82 20 -77 8 3 23 5 34 5 16 0
19 7 19 45 0 25 2 45 4 45 2 0 23 -7 46 -15 24 -8 45 -14 46 -12 2 2 7 17 10
34 6 30 4 31 -47 48 -67 22 -70 25 -90 83 -17 50 -20 52 -138 82 -41 11 -43
13 -37 42 3 17 6 49 6 72 0 53 13 74 33 57 12 -10 19 -7 35 16 l20 29 -37 31
-38 32 5 463 c4 398 7 465 20 481 38 44 70 11 82 -88 6 -44 28 -227 50 -407
22 -179 43 -333 46 -341 13 -36 106 -46 132 -14 14 17 21 75 32 287 33 607 39
674 61 693 26 21 48 22 77 1 l22 -15 0 -493 c0 -465 1 -494 18 -509 25 -23 65
-21 86 2 13 14 38 133 91 433 86 485 82 466 107 479 29 16 77 1 84 -25 3 -13
-15 -201 -40 -417 -65 -560 -61 -515 -42 -544 17 -27 53 -33 86 -15 13 7 48
100 121 317 56 170 108 320 116 336 9 18 21 27 38 27 23 0 55 -23 55 -39 0 -4
-27 -122 -59 -262 -32 -140 -72 -316 -87 -392 l-28 -138 -65 -31 c-36 -17 -67
-32 -69 -33 -2 -2 4 -17 12 -34 l16 -30 46 20 c25 12 48 19 50 16 3 -2 -2 -44
-10 -93 -55 -330 -80 -444 -98 -444 -6 0 -22 9 -38 20 -25 18 -28 27 -35 105
l-7 85 -35 0 -35 0 4 -60 c3 -63 2 -65 -21 -51 -10 6 -35 -1 -77 -22 l-63 -31
15 -28 c17 -33 19 -34 66 -8 l37 20 86 -51 85 -51 -31 -59 -31 -58 -60 -7
c-59 -7 -59 -7 -56 -38 3 -29 5 -31 51 -34 l47 -3 0 -45 c0 -44 0 -44 35 -44
l35 0 0 66 c0 50 5 73 20 94 30 43 76 150 99 232 23 82 84 434 101 576 11 101
32 203 116 566 34 147 53 249 49 266 -20 93 -172 120 -216 38 -7 -12 -54 -146
-105 -298 -51 -151 -93 -266 -93 -255 -1 11 17 173 38 360 58 497 56 467 37
507 -28 59 -102 82 -171 54 -46 -20 -64 -52 -79 -143 -8 -43 -38 -213 -67
-378 l-54 -300 -5 430 c-5 396 -7 433 -23 459 -35 53 -118 71 -174 36z"/>
<path d="M910 980 c-7 -17 -11 -32 -9 -34 6 -6 121 -56 129 -56 6 0 30 44 30
55 0 4 -128 65 -135 65 -1 0 -8 -14 -15 -30z"/>
<path d="M1270 846 c-62 -21 -66 -25 -95 -80 -29 -56 -30 -57 -11 -72 32 -23
45 -17 68 30 19 40 27 45 80 62 32 9 61 21 64 25 7 11 -18 59 -30 58 -6 0 -40
-11 -76 -23z"/>
<path d="M1388 731 c-26 -15 -50 -30 -53 -33 -5 -5 8 -41 20 -56 2 -2 22 6 46
18 42 22 43 22 102 4 l59 -18 54 28 c46 24 53 32 48 50 -11 38 -22 41 -69 18
l-44 -21 -57 19 c-31 11 -58 20 -58 19 -1 -1 -22 -13 -48 -28z"/>
<path d="M1190 423 l0 -78 61 -67 c60 -68 61 -68 84 -50 14 9 25 21 25 25 0 5
-22 34 -50 65 -49 55 -50 58 -50 119 l0 63 -35 0 -35 0 0 -77z"/>
<path d="M1025 348 c-11 -6 -21 -12 -23 -13 -1 -1 11 -32 28 -69 l30 -67 30
16 c17 9 30 19 28 23 -2 4 -14 33 -27 65 -26 59 -33 64 -66 45z"/>
</g>
</svg>
