<?xml version="1.0" standalone="no"?>
<!DOCTYPE svg PUBLIC "-//W3C//DTD SVG 20010904//EN"
 "http://www.w3.org/TR/2001/REC-SVG-20010904/DTD/svg10.dtd">
<svg version="1.0" xmlns="http://www.w3.org/2000/svg"
 width="145.000000pt" height="220.000000pt" viewBox="0 0 145.000000 220.000000"
 preserveAspectRatio="xMidYMid meet">

<g transform="translate(0.000000,220.000000) scale(0.100000,-0.100000)"
fill="#000000" stroke="none">
<path d="M641 2185 c-30 -8 -58 -19 -62 -27 -5 -7 -9 -10 -9 -5 0 11 -50 -24
-85 -60 -44 -47 -51 -56 -77 -104 -20 -37 -23 -58 -23 -139 1 -84 4 -101 28
-148 73 -141 228 -222 366 -194 236 49 356 285 252 496 -23 47 -45 74 -88 108
-74 57 -73 56 -138 74 -66 17 -91 16 -164 -1z"/>
<path d="M1030 1611 c0 -32 -127 -114 -207 -135 -77 -20 -124 -20 -193 -1 -30
9 -61 16 -67 17 -7 1 -13 5 -13 8 0 4 -14 13 -31 20 -16 7 -44 28 -61 46 -36
38 -44 36 -101 -22 -162 -167 -184 -508 -67 -1024 12 -52 24 -110 27 -128 3
-18 9 -35 14 -38 5 -3 9 -13 9 -22 0 -9 14 -63 32 -121 41 -132 73 -171 141
-171 87 0 136 71 111 160 -44 158 -76 268 -84 286 -5 14 -21 24 -44 28 -19 4
-49 18 -65 31 -24 21 -30 22 -35 10 -6 -17 -48 -20 -77 -5 -38 21 -16 90 29
90 16 0 20 9 24 52 5 47 10 57 53 95 43 40 46 46 42 80 -13 96 -19 228 -12
287 6 57 9 66 27 66 19 0 20 -4 13 -79 -6 -69 10 -301 21 -301 3 0 12 4 22 9
9 5 78 39 152 76 167 82 277 145 330 191 85 73 112 102 130 140 12 24 28 44
36 44 19 0 18 -39 -4 -72 -17 -26 -130 -148 -137 -148 -2 0 -32 -20 -67 -43
-122 -84 -264 -158 -486 -252 -99 -42 -109 -158 -19 -214 45 -28 61 -27 148
10 279 117 531 265 650 382 110 107 156 196 161 310 2 42 -1 77 -5 77 -5 0 -7
9 -4 21 7 27 -28 92 -78 143 -62 63 -144 99 -237 104 -51 3 -78 0 -78 -7z
m-618 -653 c50 -41 6 -106 -56 -82 -23 9 -21 70 2 83 23 14 35 13 54 -1z m-56
-143 c15 -23 15 -27 0 -50 -27 -42 -86 -26 -86 23 0 55 56 72 86 27z m128
-341 c9 -8 16 -24 16 -34 0 -43 -54 -65 -84 -34 -9 8 -16 24 -16 34 0 10 7 26
16 34 8 9 24 16 34 16 10 0 26 -7 34 -16z"/>
<path d="M44 855 c-10 -8 -14 -15 -9 -15 6 0 4 -4 -3 -9 -16 -10 -22 -108 -9
-136 16 -32 57 -71 57 -53 0 8 -9 23 -20 33 -36 33 -39 135 -3 170 21 21 12
29 -13 10z"/>
<path d="M1218 862 c-1 -4 -27 -22 -55 -41 -29 -18 -53 -38 -53 -44 0 -6 -3
-8 -6 -4 -4 3 -26 -7 -49 -23 -47 -32 -389 -204 -426 -214 -56 -14 -56 -8 11
-241 38 -133 39 -140 29 -180 -12 -45 -31 -70 -74 -96 l-30 -19 98 0 97 0 0
170 0 170 48 0 47 0 -3 -170 -4 -170 191 0 191 0 0 435 c0 239 -2 435 -4 435
-2 0 -6 -3 -8 -8z"/>
<path d="M102 820 c-28 -46 -4 -140 36 -140 16 1 16 1 0 14 -33 25 -44 105
-17 122 11 6 12 24 1 24 -4 0 -13 -9 -20 -20z"/>
<path d="M117 223 c-17 -16 -6 -101 16 -134 23 -35 83 -73 99 -63 5 4 -1 12
-14 18 -72 38 -93 72 -87 140 3 36 -2 51 -14 39z"/>
<path d="M187 213 c-11 -11 -8 -42 8 -73 15 -28 71 -67 82 -56 8 8 -7 26 -21
26 -21 0 -48 37 -51 70 -2 33 -8 44 -18 33z"/>
<path d="M390 20 c0 -16 7 -20 31 -20 l32 0 -26 20 c-14 11 -28 20 -31 20 -3
0 -6 -9 -6 -20z"/>
</g>
</svg>
