<?xml version="1.0" standalone="no"?>
<!DOCTYPE svg PUBLIC "-//W3C//DTD SVG 20010904//EN"
 "http://www.w3.org/TR/2001/REC-SVG-20010904/DTD/svg10.dtd">
<svg version="1.0" xmlns="http://www.w3.org/2000/svg"
 width="216.000000pt" height="233.000000pt" viewBox="0 0 216.000000 233.000000"
 preserveAspectRatio="xMidYMid meet">

<g transform="translate(0.000000,233.000000) scale(0.100000,-0.100000)"
fill="#000000" stroke="none">
<path d="M1370 2307 c-44 -22 -63 -78 -63 -187 1 -53 4 -107 8 -120 7 -21 10
-19 42 31 91 140 129 267 87 283 -24 9 -46 7 -74 -7z"/>
<path d="M1775 2223 c-27 -7 -94 -55 -126 -90 -38 -40 -99 -123 -99 -133 0 -5
31 0 69 10 168 47 264 97 269 141 5 44 -60 86 -113 72z"/>
<path d="M1600 1819 c-62 -40 -64 -42 -42 -52 28 -13 187 4 205 22 7 7 8 19 1
38 -8 24 -15 28 -54 31 -39 2 -55 -3 -110 -39z"/>
<path d="M954 1800 c-199 -42 -335 -241 -303 -442 20 -124 110 -242 227 -296
49 -22 71 -26 152 -27 83 0 102 4 154 28 32 15 60 26 61 25 1 -2 9 -16 18 -33
27 -54 76 -95 112 -95 49 0 69 28 61 85 -7 41 -5 45 14 45 11 0 48 -9 82 -21
35 -11 72 -18 85 -14 32 8 50 53 59 148 6 65 4 77 -8 77 -11 0 -17 -18 -21
-74 -7 -79 -23 -126 -42 -126 -7 0 -38 9 -70 20 -67 23 -110 26 -122 8 -4 -7
-8 -35 -8 -63 0 -46 -2 -50 -25 -53 -73 -8 -172 210 -168 370 1 48 -5 70 -45
153 -63 130 -62 162 4 195 40 21 92 24 172 11 26 -4 47 -6 47 -4 0 12 -91 43
-125 43 -22 0 -64 9 -94 21 -62 23 -158 32 -217 19z"/>
<path d="M1316 1670 c-82 -25 -121 -124 -76 -197 28 -46 53 -59 165 -82 129
-28 266 -67 334 -98 59 -25 121 -68 121 -83 0 -18 -65 -82 -123 -122 -61 -42
-203 -112 -292 -145 -45 -16 -89 -18 -432 -20 -462 -3 -453 -1 -574 -122 -84
-84 -136 -176 -183 -326 -37 -120 -76 -341 -76 -436 l0 -39 134 0 134 0 7 78
c13 150 77 407 101 407 5 0 10 -106 12 -242 l2 -243 465 0 465 0 0 338 0 337
65 24 c92 32 234 103 318 157 303 196 332 464 67 634 -76 49 -204 97 -372 139
-179 45 -223 52 -262 41z"/>
</g>
</svg>
