<?xml version="1.0" standalone="no"?>
<!DOCTYPE svg PUBLIC "-//W3C//DTD SVG 20010904//EN"
 "http://www.w3.org/TR/2001/REC-SVG-20010904/DTD/svg10.dtd">
<svg version="1.0" xmlns="http://www.w3.org/2000/svg"
 width="350.000000pt" height="350.000000pt" viewBox="0 0 350.000000 350.000000"
 preserveAspectRatio="xMidYMid meet">

<g transform="translate(0.000000,350.000000) scale(0.100000,-0.100000)"
fill="#000000" stroke="none">
<path d="M1575 3405 c-86 -19 -170 -50 -234 -87 -488 -274 -589 -923 -207
-1325 114 -121 249 -201 411 -244 111 -30 297 -30 410 0 394 102 665 468 642
866 -8 124 -28 206 -78 313 -115 249 -331 421 -599 478 -82 17 -266 17 -345
-1z m138 -511 c11 -11 -15 -64 -44 -89 -75 -62 -186 -25 -214 73 l-6 22 129 0
c71 0 131 -3 135 -6z m586 -23 c12 -8 12 -15 0 -47 -40 -106 -202 -112 -245
-9 -27 65 -27 65 109 65 67 0 128 -4 136 -9z m-326 -759 c140 -68 157 -79 145
-93 -12 -15 -58 5 -445 194 -385 187 -431 212 -422 228 10 19 27 11 722 -329z"/>
<path d="M1535 1279 c-534 -55 -1058 -244 -1296 -467 -91 -85 -140 -154 -168
-240 -19 -55 -21 -85 -21 -307 l0 -245 1700 0 1700 0 0 245 c0 269 -7 314 -67
408 -172 273 -674 501 -1303 592 -131 19 -426 27 -545 14z"/>
</g>
</svg>
