<?xml version="1.0" standalone="no"?>
<!DOCTYPE svg PUBLIC "-//W3C//DTD SVG 20010904//EN"
 "http://www.w3.org/TR/2001/REC-SVG-20010904/DTD/svg10.dtd">
<svg version="1.0" xmlns="http://www.w3.org/2000/svg"
 width="300.000000pt" height="300.000000pt" viewBox="0 0 300.000000 300.000000"
 preserveAspectRatio="xMidYMid meet">

<g transform="translate(0.000000,300.000000) scale(0.100000,-0.100000)"
fill="#000000" stroke="none">
<path d="M2340 2980 c-18 -18 -20 -33 -20 -129 0 -106 1 -110 26 -130 33 -26
36 -26 65 -2 22 17 24 29 28 110 3 101 -1 132 -25 155 -21 22 -50 20 -74 -4z"/>
<path d="M1982 2888 c-22 -22 -12 -65 33 -145 58 -102 77 -120 113 -107 15 5
31 21 36 36 8 22 2 39 -39 109 -26 46 -54 92 -63 102 -17 20 -62 23 -80 5z"/>
<path d="M2703 2892 c-20 -13 -113 -183 -113 -208 0 -34 43 -60 74 -46 27 12
126 178 126 210 0 40 -52 66 -87 44z"/>
<path d="M1720 2620 c-40 -40 -22 -66 89 -129 119 -69 167 -66 159 10 -3 28
-12 37 -96 85 -52 30 -102 54 -113 54 -10 0 -28 -9 -39 -20z"/>
<path d="M2250 2617 c-87 -29 -160 -85 -210 -159 -55 -83 -74 -151 -68 -252 7
-111 36 -182 105 -256 197 -213 540 -165 668 93 162 328 -152 691 -495 574z
m247 -117 c186 -82 237 -320 102 -475 -49 -55 -138 -95 -215 -95 -33 0 -81 7
-107 16 -98 33 -183 142 -194 249 -24 228 206 397 414 305z"/>
<path d="M2887 2588 c-100 -58 -119 -83 -93 -123 23 -36 56 -32 137 15 l69 41
0 59 c0 42 -4 60 -12 59 -7 0 -53 -23 -101 -51z"/>
<path d="M1310 2568 c-235 -36 -405 -296 -331 -509 30 -87 57 -133 108 -184
161 -161 429 -156 583 11 53 58 100 157 107 228 l6 56 42 0 c48 0 75 22 75 61
0 38 -19 49 -80 49 l-56 0 -23 54 c-26 64 -106 151 -171 187 -80 44 -172 61
-260 47z"/>
<path d="M2862 2268 c-18 -18 -14 -63 6 -81 13 -12 37 -17 75 -17 l57 0 0 55
0 55 -63 0 c-36 0 -68 -5 -75 -12z"/>
<path d="M1825 1973 c-102 -59 -115 -70 -115 -104 0 -34 37 -63 66 -52 34 13
189 105 196 116 22 35 -7 87 -48 87 -10 0 -55 -21 -99 -47z"/>
<path d="M2800 2000 c-23 -23 -26 -49 -7 -72 11 -14 188 -118 201 -118 3 0 6
28 6 63 l0 62 -75 43 c-84 48 -97 50 -125 22z"/>
<path d="M2057 1783 c-13 -21 -39 -66 -58 -101 -24 -45 -38 -61 -49 -56 -84
33 -130 35 -592 32 l-463 -3 -75 -30 c-59 -24 -89 -44 -141 -95 -131 -129
-196 -334 -260 -825 -5 -38 -20 -142 -34 -230 -26 -173 -52 -352 -62 -428 l-6
-47 162 0 c88 0 161 4 161 9 0 26 160 1025 165 1030 3 2 5 -230 5 -517 l0
-522 560 0 560 0 0 495 c0 272 4 495 8 495 4 0 32 -150 62 -332 29 -183 65
-405 80 -493 l26 -160 158 -3 159 -3 -6 43 c-11 75 -55 366 -87 573 -17 110
-40 261 -51 335 -47 321 -93 470 -178 570 l-38 45 53 90 c57 98 64 123 36 148
-32 30 -69 22 -95 -20z"/>
<path d="M2606 1804 c-26 -25 -19 -51 35 -146 58 -101 83 -120 124 -94 14 9
25 26 25 38 0 23 -81 177 -106 203 -20 19 -58 19 -78 -1z"/>
<path d="M2336 1728 c-12 -17 -16 -48 -16 -123 0 -119 13 -148 63 -143 48 5
58 34 55 156 -3 89 -6 106 -22 118 -29 21 -63 17 -80 -8z"/>
<path d="M433 1524 c-18 -9 -52 -37 -77 -64 -62 -66 -76 -131 -52 -251 26
-131 17 -163 -76 -266 -63 -69 -92 -132 -83 -176 10 -44 55 -126 76 -137 12
-7 21 -5 29 5 9 11 6 27 -19 76 -17 34 -31 68 -31 76 0 25 29 72 84 133 92
103 95 116 70 346 -4 39 -2 75 6 98 14 43 93 116 127 116 31 0 42 29 18 46
-24 18 -33 17 -72 -2z"/>
<path d="M207 1477 c-9 -7 -28 -41 -43 -77 -24 -56 -29 -83 -33 -191 l-6 -127
-48 -50 c-62 -67 -76 -97 -54 -119 15 -15 18 -14 39 11 13 15 40 46 61 68 52
55 57 73 57 187 0 99 9 140 50 228 11 24 20 49 20 57 0 19 -25 27 -43 13z"/>
<path d="M2257 1383 c-16 -15 -4 -34 37 -62 62 -43 74 -83 47 -156 -31 -83
-28 -109 29 -205 58 -98 90 -177 90 -222 0 -16 -12 -52 -26 -79 -22 -40 -25
-51 -14 -64 18 -22 42 -5 75 56 27 51 28 56 18 115 -13 72 -53 166 -100 232
-37 53 -42 92 -18 149 19 45 19 116 0 152 -26 52 -116 106 -138 84z"/>
<path d="M2527 1318 c-2 -7 2 -28 9 -47 19 -46 18 -75 -6 -121 -29 -57 -25
-91 21 -181 34 -67 42 -92 43 -142 2 -55 4 -62 23 -65 56 -8 50 105 -13 230
-39 78 -41 99 -14 153 25 49 25 88 0 143 -19 42 -53 58 -63 30z"/>
</g>
</svg>
