<?xml version="1.0" encoding="UTF-8" standalone="no"?>
<!DOCTYPE svg PUBLIC "-//W3C//DTD SVG 1.1//EN"
 "http://www.w3.org/Graphics/SVG/1.1/DTD/svg11.dtd">
<!-- Generated by graphviz version 2.47.3 (20210619.1520)
 -->
<!-- Title: dependencies Pages: 1 -->
<svg width="336pt" height="174pt"
 viewBox="0.00 0.00 336.00 173.80" xmlns="http://www.w3.org/2000/svg" xmlns:xlink="http://www.w3.org/1999/xlink">
<g id="graph0" class="graph" transform="scale(1 1) rotate(0) translate(4 169.8)">
<title>dependencies</title>
<polygon fill="white" stroke="transparent" points="-4,4 -4,-169.8 332,-169.8 332,4 -4,4"/>
<text text-anchor="middle" x="164" y="-8.2" font-family="sans-serif" font-size="14.00">dependencies</text>
<g id="clust1" class="cluster">
<title>cluster_EnergyPageModule</title>
<polygon fill="none" stroke="black" stroke-dasharray="1,5" points="8,-32.8 8,-157.8 320,-157.8 320,-32.8 8,-32.8"/>
</g>
<g id="clust2" class="cluster">
<title>cluster_EnergyPageModule_declarations</title>
<polygon fill="none" stroke="black" points="212,-40.8 212,-92.8 312,-92.8 312,-40.8 212,-40.8"/>
</g>
<g id="clust4" class="cluster">
<title>cluster_EnergyPageModule_imports</title>
<polygon fill="none" stroke="black" points="16,-40.8 16,-92.8 204,-92.8 204,-40.8 16,-40.8"/>
</g>
<!-- EnergyPage -->
<g id="node1" class="node">
<title>EnergyPage</title>
<polygon fill="#ffffb3" stroke="black" points="303.64,-84.8 220.36,-84.8 220.36,-48.8 303.64,-48.8 303.64,-84.8"/>
<text text-anchor="middle" x="262" y="-62.6" font-family="Times,serif" font-size="14.00">EnergyPage</text>
</g>
<!-- EnergyPageModule -->
<g id="node2" class="node">
<title>EnergyPageModule</title>
<polygon fill="#8dd3c7" stroke="black" points="242.69,-149.8 239.69,-153.8 218.69,-153.8 215.69,-149.8 115.31,-149.8 115.31,-113.8 242.69,-113.8 242.69,-149.8"/>
<text text-anchor="middle" x="179" y="-127.6" font-family="Times,serif" font-size="14.00">EnergyPageModule</text>
</g>
<!-- EnergyPage&#45;&gt;EnergyPageModule -->
<g id="edge1" class="edge">
<title>EnergyPage&#45;&gt;EnergyPageModule</title>
<path fill="none" stroke="black" d="M231.39,-84.91C231.39,-84.91 231.39,-103.79 231.39,-103.79"/>
<polygon fill="black" stroke="black" points="227.89,-103.79 231.39,-113.79 234.89,-103.79 227.89,-103.79"/>
</g>
<!-- EnergyPageRoutingModule -->
<g id="node3" class="node">
<title>EnergyPageRoutingModule</title>
<polygon fill="#8dd3c7" stroke="black" points="196.31,-84.8 193.31,-88.8 172.31,-88.8 169.31,-84.8 23.69,-84.8 23.69,-48.8 196.31,-48.8 196.31,-84.8"/>
<text text-anchor="middle" x="110" y="-62.6" font-family="Times,serif" font-size="14.00">EnergyPageRoutingModule</text>
</g>
<!-- EnergyPageRoutingModule&#45;&gt;EnergyPageModule -->
<g id="edge2" class="edge">
<title>EnergyPageRoutingModule&#45;&gt;EnergyPageModule</title>
<path fill="none" stroke="black" d="M155.78,-84.91C155.78,-84.91 155.78,-103.79 155.78,-103.79"/>
<polygon fill="black" stroke="black" points="152.28,-103.79 155.78,-113.79 159.28,-103.79 152.28,-103.79"/>
</g>
</g>
</svg>
