<svg width="31" height="30" viewBox="0 0 31 30" fill="none" xmlns="http://www.w3.org/2000/svg">
<g clip-path="url(#clip0_120_61)">
<path d="M18.1915 1.89633H18.1967H18.1915ZM18.1915 1.89633L16.0761 13.0109L23.7397 13.0367L13.3081 28.1041L15.4236 15.8763L7.76047 15.8496L18.1915 1.89633ZM18.193 0.0213599C18.1423 0.0213599 18.0917 0.0232056 18.0421 0.0269263C17.7111 0.0536743 17.4917 0.164299 17.2316 0.339143C17.0851 0.436801 16.953 0.554509 16.8392 0.688831C16.8051 0.729145 16.7728 0.771067 16.7427 0.814456L6.23657 14.719C5.82172 15.2876 5.76079 16.0381 6.07954 16.6653C6.39782 17.2925 7.04141 17.69 7.74688 17.6951L13.1591 17.7345L11.4575 27.7596C11.2958 28.6212 11.7552 29.48 12.5638 29.8259C12.7987 29.9269 13.0519 29.9789 13.3076 29.9787C13.8968 29.9787 14.3811 29.7031 14.7444 29.2053L25.2636 14.1377C25.6784 13.5691 25.7389 12.8177 25.4206 12.1915C25.1023 11.5643 24.4587 11.1667 23.7533 11.1616L18.3411 11.1522L20.0244 2.33739C20.06 2.19308 20.078 2.04496 20.0778 1.8963C20.0778 0.881926 19.2702 0.0550513 18.2595 0.0222388C18.2371 0.0213013 18.215 0.0213013 18.193 0.0213013L18.193 0.0213599Z" fill="black"/>
</g>
<defs>
<clipPath id="clip0_120_61">
<rect width="29.7462" height="29.9574" fill="white" transform="translate(0.876892 0.0213013)"/>
</clipPath>
</defs>
</svg>
