<svg width="30" height="31" viewBox="0 0 30 31" fill="none" xmlns="http://www.w3.org/2000/svg">
<path d="M15.25 30.0833C7.19563 30.0833 0.666672 23.5544 0.666672 15.5C0.666672 7.44563 7.19563 0.916672 15.25 0.916672C23.3044 0.916672 29.8333 7.44563 29.8333 15.5C29.8333 23.5544 23.3044 30.0833 15.25 30.0833ZM15.25 27.1667C18.3442 27.1667 21.3117 25.9375 23.4996 23.7496C25.6875 21.5617 26.9167 18.5942 26.9167 15.5C26.9167 12.4058 25.6875 9.43835 23.4996 7.25043C21.3117 5.0625 18.3442 3.83334 15.25 3.83334C12.1558 3.83334 9.18835 5.0625 7.00043 7.25043C4.8125 9.43835 3.58334 12.4058 3.58334 15.5C3.58334 18.5942 4.8125 21.5617 7.00043 23.7496C9.18835 25.9375 12.1558 27.1667 15.25 27.1667ZM15.25 8.20834C15.6368 8.20834 16.0077 8.36198 16.2812 8.63547C16.5547 8.90896 16.7083 9.2799 16.7083 9.66667V16.9583C16.7083 17.3451 16.5547 17.716 16.2812 17.9895C16.0077 18.263 15.6368 18.4167 15.25 18.4167C14.8632 18.4167 14.4923 18.263 14.2188 17.9895C13.9453 17.716 13.7917 17.3451 13.7917 16.9583V9.66667C13.7917 9.2799 13.9453 8.90896 14.2188 8.63547C14.4923 8.36198 14.8632 8.20834 15.25 8.20834ZM15.25 22.7917C14.8632 22.7917 14.4923 22.638 14.2188 22.3645C13.9453 22.091 13.7917 21.7201 13.7917 21.3333C13.7917 20.9466 13.9453 20.5756 14.2188 20.3021C14.4923 20.0287 14.8632 19.875 15.25 19.875C15.6368 19.875 16.0077 20.0287 16.2812 20.3021C16.5547 20.5756 16.7083 20.9466 16.7083 21.3333C16.7083 21.7201 16.5547 22.091 16.2812 22.3645C16.0077 22.638 15.6368 22.7917 15.25 22.7917Z" fill="black"/>
</svg>
