<svg width="30" height="25" viewBox="0 0 30 25" fill="none" xmlns="http://www.w3.org/2000/svg">
<path d="M25.3969 8.5V5.6795C25.3932 5.36408 25.2382 5.06277 24.9661 4.84165C24.6939 4.62053 24.3268 4.49767 23.9451 4.5H9.17806L11.1138 6.1H23.4612V10.1H27.3327V15.3H24.4291V16.9H29.2684V8.5H25.3969ZM8.37624 6.1L6.44051 4.5L1.60119 0.5H0.232445V1.63135L3.70303 4.5H1.6834C1.30178 4.49767 0.93463 4.62053 0.662467 4.84165C0.390303 5.06277 0.235352 5.36408 0.231598 5.6795V19.7205C0.235352 20.0359 0.390303 20.3372 0.662467 20.5583C0.93463 20.7795 1.30178 20.9023 1.6834 20.9H23.5443L27.8997 24.5H29.2684V23.3687L15.3894 11.8968L8.37624 6.1ZM2.16733 19.3V6.1H5.63876L21.6085 19.3H2.16733Z" fill="black"/>
</svg>
