<svg width="29" height="30" viewBox="0 0 29 30" fill="none" xmlns="http://www.w3.org/2000/svg">
<path d="M10.9179 0C10.9179 0 0.171631 12.0896 0.171631 19.2537C0.171631 25.1821 4.98954 30 10.9179 30C16.8463 30 21.6642 25.1821 21.6642 19.2537C21.6642 12.0896 10.9179 0 10.9179 0ZM10.9179 26.4179C6.95969 26.4179 3.75372 23.2119 3.75372 19.2537C3.75372 16.0836 7.33581 10.2269 10.9179 5.62388C14.5 10.209 18.0821 16.0836 18.0821 19.2537C18.0821 23.2119 14.8761 26.4179 10.9179 26.4179ZM28.8283 6.71642V17.4627H25.2463V6.71642H28.8283ZM25.2463 24.6269H28.8283V21.0448H25.2463V24.6269Z" fill="black"/>
</svg>
