<svg width="30" height="24" viewBox="0 0 30 24" fill="none" xmlns="http://www.w3.org/2000/svg">
<path d="M28.1804 10.9163C26.6081 10.5812 25.8221 9.74095 25.8075 9.7263C25.1898 9.01204 24.1778 9.0179 23.5434 9.70345C23.4931 9.75841 22.2777 11.0511 19.8313 11.0511C17.385 11.0511 16.1696 9.75853 16.1369 9.72571C15.5231 9.00618 14.5111 9.0179 13.8768 9.70345C13.8264 9.75841 12.611 11.0511 10.1647 11.0511C7.71831 11.0511 6.50595 9.76204 6.47071 9.72689C5.85647 9.00618 4.84701 9.01204 4.21214 9.70931C4.17941 9.73861 3.39349 10.5824 1.82065 10.9163C0.945613 11.1031 0.366118 12.0788 0.525718 13.0972C0.686225 14.1156 1.52158 14.8017 2.40115 14.6042C3.67644 14.3324 4.65267 13.8226 5.33085 13.3597C6.31262 14.0353 7.92222 14.8058 10.1662 14.8058C12.4092 14.8058 14.0172 14.037 14.9995 13.3615C15.9823 14.037 17.5899 14.8023 19.8328 14.8023C22.0773 14.8023 23.6869 14.0353 24.6687 13.3597C25.3469 13.8248 26.3231 14.3335 27.5984 14.6048C28.4825 14.8026 29.3132 14.1159 29.4738 13.0978C29.6354 12.0824 29.0564 11.1038 28.1804 10.9163ZM28.1804 19.3656C26.6081 19.0305 25.8221 18.1902 25.8075 18.1755C25.1923 17.4613 24.1808 17.4654 23.5464 18.1535C23.4931 18.2054 22.2797 19.5003 19.8328 19.5003C17.386 19.5003 16.1711 18.2077 16.1384 18.1749C15.5231 17.4572 14.5122 17.4648 13.8783 18.153C13.8264 18.2054 12.6131 19.5003 10.1662 19.5003C7.71932 19.5003 6.50444 18.2077 6.47172 18.1749C5.85647 17.4572 4.84651 17.4624 4.21163 18.1548C4.1786 18.1896 3.39248 19.0302 1.82014 19.3653C0.94511 19.5521 0.365614 20.5278 0.525215 21.5462C0.686477 22.5648 1.52209 23.2503 2.40165 23.0511C3.67644 22.7816 4.65267 22.2718 5.33085 21.8089C6.31262 22.4845 7.92423 23.2515 10.1682 23.2515C12.4112 23.2515 14.0172 22.4863 14.9995 21.8107C15.9813 22.4827 17.5924 23.2503 19.8379 23.2503C22.0824 23.2503 23.6894 22.4833 24.6259 21.8077C25.3041 22.2729 26.2803 22.7816 27.5556 23.0529C28.4825 23.2503 29.3132 22.5648 29.4743 21.5452C29.6354 20.5257 29.0564 19.5531 28.1804 19.3656ZM2.40165 6.16439C3.67695 5.89339 4.65318 5.38451 5.33135 4.91927C6.31312 5.59486 7.92272 6.36537 10.1667 6.36537C12.4097 6.36537 14.0177 5.59662 15 4.92103C15.9828 5.59662 17.5904 6.36185 19.8333 6.36185C22.0778 6.36185 23.6874 5.59486 24.6692 4.91927C25.3474 5.38439 26.3236 5.8931 27.5989 6.16439C28.483 6.36214 29.3137 5.67548 29.4743 4.65736C29.634 3.639 29.0542 2.66341 28.1794 2.4765C26.6071 2.1414 25.8211 1.30111 25.8065 1.28646C25.1913 0.572203 24.1798 0.576305 23.5454 1.26449C23.4951 1.31945 22.2797 2.61214 19.8333 2.61214C17.387 2.61214 16.1716 1.31957 16.1389 1.28675C15.5236 0.56898 14.5127 0.576598 13.8788 1.26478C13.8284 1.31974 12.6131 2.61244 10.1667 2.61244C7.72032 2.61244 6.50595 1.3222 6.47071 1.28939C5.85647 0.571617 4.84701 0.576891 4.21214 1.26888C4.17941 1.30404 3.39349 2.14427 1.82065 2.47943C0.945613 2.66623 0.366118 3.64193 0.525718 4.66029C0.686477 5.67806 1.52209 6.36361 2.40165 6.16439Z" fill="black"/>
</svg>
