<svg width="31" height="50" viewBox="0 0 31 50" fill="none" xmlns="http://www.w3.org/2000/svg">
<g clip-path="url(#clip0_239_131)">
<path d="M30.0454 19.0909V30.9091C30.0454 31.6667 29.7803 32.3106 29.25 32.8409C28.7197 33.3712 28.0757 33.6364 27.3182 33.6364C26.5606 33.6364 25.9167 33.3712 25.3863 32.8409C24.856 32.3106 24.5909 31.6667 24.5909 30.9091V20.9091H22.7727V46.8182C22.7727 47.6894 22.4602 48.4375 21.8352 49.0625C21.2102 49.6875 20.4621 50 19.5909 50C18.7197 50 17.9716 49.6875 17.3466 49.0625C16.7216 48.4375 16.4091 47.6894 16.4091 46.8182V33.6364H14.5909V46.8182C14.5909 47.6894 14.2784 48.4375 13.6534 49.0625C13.0284 49.6875 12.2803 50 11.4091 50C10.5379 50 9.78976 49.6875 9.16476 49.0625C8.53976 48.4375 8.22726 47.6894 8.22726 46.8182V20.9091H6.40907V30.9091C6.40907 31.6667 6.14392 32.3106 5.61362 32.8409C5.08332 33.3712 4.43938 33.6364 3.6818 33.6364C2.92423 33.6364 2.28029 33.3712 1.74998 32.8409C1.21968 32.3106 0.954529 31.6667 0.954529 30.9091V19.0909C0.954529 17.5758 1.48483 16.2879 2.54544 15.2273C3.60604 14.1667 4.89392 13.6364 6.40907 13.6364H24.5909C26.106 13.6364 27.3939 14.1667 28.4545 15.2273C29.5151 16.2879 30.0454 17.5758 30.0454 19.0909ZM21.8636 6.36364C21.8636 8.125 21.2434 9.62595 20.0028 10.8665C18.7623 12.107 17.2613 12.7273 15.5 12.7273C13.7386 12.7273 12.2377 12.107 10.9971 10.8665C9.75661 9.62595 9.13635 8.125 9.13635 6.36364C9.13635 4.60227 9.75661 3.10133 10.9971 1.8608C12.2377 0.620265 13.7386 0 15.5 0C17.2613 0 18.7623 0.620265 20.0028 1.8608C21.2434 3.10133 21.8636 4.60227 21.8636 6.36364Z" fill="black"/>
</g>
<defs>
<clipPath id="clip0_239_131">
<rect width="29.0909" height="50" fill="white" transform="translate(0.954529)"/>
</clipPath>
</defs>
</svg>
