<svg width="32" height="50" viewBox="0 0 32 50" fill="none" xmlns="http://www.w3.org/2000/svg">
<g clip-path="url(#clip0_239_211)">
<path d="M20.5625 9.375C23.1504 9.375 25.25 7.27539 25.25 4.6875C25.25 2.09961 23.1504 0 20.5625 0C17.9746 0 15.875 2.09961 15.875 4.6875C15.875 7.27539 17.9746 9.375 20.5625 9.375ZM29.791 23.9355L27.5156 22.7832L26.5684 19.9121C25.1328 15.5566 21.1289 12.5098 16.5879 12.5C13.0723 12.4902 11.1289 13.4863 7.47656 14.9609C5.36719 15.8105 3.63867 17.4219 2.62305 19.4727L1.96875 20.8008C1.20703 22.3438 1.82227 24.2188 3.35547 24.9902C4.87891 25.7617 6.73438 25.1367 7.50586 23.5938L8.16016 22.2656C8.50195 21.582 9.06836 21.0449 9.77149 20.7617L12.3887 19.707L10.9043 25.6348C10.3965 27.666 10.9434 29.8242 12.3594 31.377L18.209 37.7637C18.9121 38.5352 19.4102 39.4629 19.6641 40.4688L21.4512 47.627C21.8711 49.2969 23.5703 50.3223 25.2402 49.9023C26.9102 49.4824 27.9356 47.7832 27.5156 46.1133L25.3477 37.4219C25.0938 36.416 24.5957 35.4785 23.8926 34.7168L19.4492 29.8633L21.1289 23.1543L21.666 24.7656C22.1836 26.3379 23.2969 27.6367 24.7617 28.3789L27.0371 29.5312C28.5606 30.3027 30.416 29.6777 31.1875 28.1348C31.9395 26.6016 31.3242 24.707 29.791 23.9355ZM7.4375 37.6758C7.125 38.4668 6.65625 39.1797 6.05078 39.7754L1.16797 44.668C-0.0527344 45.8887 -0.0527344 47.8711 1.16797 49.0918C2.38867 50.3125 4.36133 50.3125 5.58203 49.0918L11.3828 43.291C11.9785 42.6953 12.4473 41.9824 12.7695 41.1914L14.0879 37.8906C8.6875 32.002 10.3086 33.8086 9.45899 32.6465L7.4375 37.6758Z" fill="black"/>
</g>
<defs>
<clipPath id="clip0_239_211">
<rect width="31.25" height="50" fill="white" transform="translate(0.25)"/>
</clipPath>
</defs>
</svg>
